<svg id="Illustration" xmlns="http://www.w3.org/2000/svg" xmlns:xlink="http://www.w3.org/1999/xlink" viewBox="0 0 2158.1 1403.9"><defs><style>.cls-1{fill:url(#linear-gradient);}.cls-2{fill:#bdd0fb;}.cls-3,.cls-9{fill:#91b3fa;}.cls-4{fill:#dce5fe;}.cls-5{fill:url(#linear-gradient-2);}.cls-6{fill:url(#linear-gradient-3);}.cls-7{opacity:0.9;}.cls-12,.cls-13,.cls-8{fill:#fff;}.cls-9{opacity:0.73;}.cls-10{fill:url(#linear-gradient-4);}.cls-11{fill:url(#linear-gradient-5);}.cls-12{opacity:0.78;}.cls-13{opacity:0.66;}.cls-14{fill:url(#linear-gradient-6);}.cls-15{fill:url(#linear-gradient-7);}.cls-16{fill:url(#linear-gradient-8);}.cls-17{fill:url(#linear-gradient-9);}.cls-18{fill:url(#linear-gradient-10);}.cls-19{fill:url(#linear-gradient-11);}.cls-20{fill:url(#linear-gradient-12);}.cls-21{fill:url(#linear-gradient-13);}.cls-22{fill:url(#linear-gradient-14);}.cls-23{fill:url(#linear-gradient-15);}.cls-24{fill:url(#linear-gradient-16);}.cls-25{fill:url(#linear-gradient-17);}.cls-26{fill:url(#linear-gradient-18);}.cls-27{fill:url(#linear-gradient-19);}.cls-28{fill:url(#linear-gradient-20);}.cls-29{fill:url(#linear-gradient-21);}.cls-30{fill:url(#linear-gradient-22);}.cls-31{fill:url(#linear-gradient-23);}.cls-32{fill:url(#linear-gradient-24);}.cls-33{fill:url(#linear-gradient-25);}.cls-34{fill:url(#linear-gradient-26);}.cls-35{fill:url(#linear-gradient-27);}.cls-36{fill:url(#linear-gradient-28);}.cls-37{fill:url(#linear-gradient-29);}.cls-38{fill:url(#linear-gradient-30);}.cls-39{fill:url(#linear-gradient-31);}.cls-40{fill:url(#linear-gradient-32);}.cls-41{fill:url(#linear-gradient-33);}.cls-42{fill:url(#linear-gradient-34);}.cls-43{fill:url(#linear-gradient-35);}.cls-44{fill:url(#linear-gradient-36);}.cls-45{fill:url(#linear-gradient-37);}.cls-46{fill:url(#linear-gradient-38);}.cls-47{fill:url(#linear-gradient-39);}.cls-48{fill:url(#linear-gradient-40);}.cls-49{fill:url(#linear-gradient-41);}.cls-50{fill:url(#linear-gradient-42);}.cls-51{fill:url(#linear-gradient-43);}.cls-52{fill:url(#linear-gradient-44);}.cls-53{fill:url(#linear-gradient-45);}.cls-54{fill:url(#linear-gradient-46);}.cls-55{fill:url(#linear-gradient-47);}.cls-56{fill:url(#linear-gradient-48);}.cls-57{fill:url(#linear-gradient-49);}.cls-58{fill:url(#linear-gradient-50);}.cls-59{fill:url(#linear-gradient-51);}.cls-60{fill:url(#linear-gradient-52);}.cls-61{fill:url(#linear-gradient-53);}.cls-62{fill:url(#linear-gradient-54);}.cls-63{fill:url(#linear-gradient-55);}.cls-64{fill:url(#linear-gradient-56);}.cls-65{fill:url(#linear-gradient-57);}.cls-66{fill:url(#linear-gradient-58);}.cls-67{fill:url(#linear-gradient-59);}.cls-68{fill:url(#linear-gradient-60);}.cls-69{fill:url(#linear-gradient-61);}.cls-70{fill:url(#linear-gradient-62);}.cls-71{fill:url(#linear-gradient-63);}.cls-72{fill:url(#linear-gradient-64);}.cls-73{fill:#7d97f4;}</style><linearGradient id="linear-gradient" x1="-5956.51" y1="176.3" x2="-7087.98" y2="1152.4" gradientTransform="matrix(-1, 0, 0, 1, -5444.43, 0)" gradientUnits="userSpaceOnUse"><stop offset="0" stop-color="#dae3fe"/><stop offset="1" stop-color="#e9effd"/></linearGradient><linearGradient id="linear-gradient-2" x1="1195.25" y1="1570.03" x2="1246.26" y2="210.9" gradientUnits="userSpaceOnUse"><stop offset="0" stop-color="#09005d"/><stop offset="1" stop-color="#1a0f91"/></linearGradient><linearGradient id="linear-gradient-3" x1="988.56" y1="1415.23" x2="1561.62" y2="23.09" gradientUnits="userSpaceOnUse"><stop offset="0" stop-color="#fe7062"/><stop offset="1" stop-color="#ff928e"/></linearGradient><linearGradient id="linear-gradient-4" x1="1398.71" y1="470.24" x2="1478.9" y2="377.17" gradientTransform="translate(207.68 -468.9) rotate(19.33)" gradientUnits="userSpaceOnUse"><stop offset="0" stop-color="#e1473d"/><stop offset="1" stop-color="#e9605a"/></linearGradient><linearGradient id="linear-gradient-5" x1="1524.21" y1="309.29" x2="1287.1" y2="667.49" gradientTransform="translate(44.19 -144.06) rotate(5.65)" xlink:href="#linear-gradient-3"/><linearGradient id="linear-gradient-6" x1="1508.26" y1="356.48" x2="1397.72" y2="456.97" xlink:href="#linear-gradient-3"/><linearGradient id="linear-gradient-7" x1="1502.59" y1="348.57" x2="1388.13" y2="452.62" xlink:href="#linear-gradient-3"/><linearGradient id="linear-gradient-8" x1="1508.28" y1="469.69" x2="1647.86" y2="307.67" gradientTransform="translate(1723.19 -1372.55) rotate(82.03)" xlink:href="#linear-gradient-4"/><linearGradient id="linear-gradient-9" x1="1726.74" y1="189.5" x2="1313.98" y2="813.06" gradientTransform="translate(1567.69 -1372.06) rotate(76.72)" xlink:href="#linear-gradient-3"/><linearGradient id="linear-gradient-10" x1="1509.82" y1="364.63" x2="1776.19" y2="218.73" xlink:href="#linear-gradient-3"/><linearGradient id="linear-gradient-11" x1="1510.21" y1="365.35" x2="1776.58" y2="219.44" xlink:href="#linear-gradient-3"/><linearGradient id="linear-gradient-12" x1="1388.45" y1="302.98" x2="1654.82" y2="157.08" xlink:href="#linear-gradient-3"/><linearGradient id="linear-gradient-13" x1="1521.87" y1="386.62" x2="1788.24" y2="240.72" xlink:href="#linear-gradient-3"/><linearGradient id="linear-gradient-14" x1="1575.92" y1="706.92" x2="1719.55" y2="540.2" gradientTransform="translate(1561.36 -1260.13) rotate(67.57)" xlink:href="#linear-gradient-4"/><linearGradient id="linear-gradient-15" x1="1800.71" y1="418.61" x2="1375.99" y2="1060.24" gradientTransform="translate(884.09 -1060.72) rotate(45)" xlink:href="#linear-gradient-3"/><linearGradient id="linear-gradient-16" x1="1710.25" y1="590.31" x2="1756.25" y2="432.31" xlink:href="#linear-gradient-3"/><linearGradient id="linear-gradient-17" x1="1752.46" y1="515.59" x2="1857.7" y2="393.44" gradientTransform="translate(1861.64 -1509.51) rotate(78.18)" xlink:href="#linear-gradient-4"/><linearGradient id="linear-gradient-18" x1="1917.16" y1="304.34" x2="1605.97" y2="774.46" gradientTransform="translate(821.19 -1200.58) rotate(45)" xlink:href="#linear-gradient-3"/><linearGradient id="linear-gradient-19" x1="1956.18" y1="298.11" x2="1701.41" y2="538.29" xlink:href="#linear-gradient-3"/><linearGradient id="linear-gradient-20" x1="1966.45" y1="307.82" x2="1710.51" y2="549.11" xlink:href="#linear-gradient-3"/><linearGradient id="linear-gradient-21" x1="-216.59" y1="3502.96" x2="-1308" y2="4564.26" gradientTransform="translate(-1574.03)" gradientUnits="userSpaceOnUse"><stop offset="0" stop-color="#4042e2"/><stop offset="1" stop-color="#4f52ff"/></linearGradient><linearGradient id="linear-gradient-22" x1="2432.92" y1="1264.67" x2="2505.79" y2="1340.78" gradientTransform="translate(-1574.03)" xlink:href="#linear-gradient-2"/><linearGradient id="linear-gradient-23" x1="2320.08" y1="1190.57" x2="2394.43" y2="910.51" gradientTransform="translate(-1574.03)" xlink:href="#linear-gradient-2"/><linearGradient id="linear-gradient-24" x1="2529.58" y1="1455.7" x2="2667.41" y2="1556.86" gradientTransform="translate(-1574.03)" xlink:href="#linear-gradient-2"/><linearGradient id="linear-gradient-25" x1="2595.44" y1="1401.9" x2="2305.45" y2="1165.01" xlink:href="#linear-gradient-21"/><linearGradient id="linear-gradient-26" x1="2674.11" y1="1571.75" x2="2384.11" y2="1334.86" xlink:href="#linear-gradient-21"/><linearGradient id="linear-gradient-27" x1="-536" y1="1090.47" x2="-346.09" y2="1090.47" gradientTransform="matrix(-1, 0, 0, 1, 239.38, 0)" gradientUnits="userSpaceOnUse"><stop offset="0" stop-color="#ff928e"/><stop offset="1" stop-color="#feb3b1"/></linearGradient><linearGradient id="linear-gradient-28" x1="2531.56" y1="1263.83" x2="2243.25" y2="1372.58" gradientTransform="translate(-1574.03)" xlink:href="#linear-gradient-2"/><linearGradient id="linear-gradient-29" x1="2124.48" y1="1158.91" x2="2274.41" y2="1684.9" gradientTransform="translate(-1574.03)" xlink:href="#linear-gradient-3"/><linearGradient id="linear-gradient-30" x1="518.9" y1="875.22" x2="497.66" y2="1093.18" gradientTransform="matrix(1, 0, 0, 1, 0, 0)" xlink:href="#linear-gradient-27"/><linearGradient id="linear-gradient-31" x1="-425.68" y1="187.25" x2="-296.02" y2="223.02" gradientTransform="translate(-1574.03)" xlink:href="#linear-gradient-27"/><linearGradient id="linear-gradient-32" x1="2092.71" y1="733.03" x2="2120.94" y2="894.07" gradientTransform="translate(-1574.03)" xlink:href="#linear-gradient-2"/><linearGradient id="linear-gradient-33" x1="-424.76" y1="183.93" x2="-295.1" y2="219.7" gradientTransform="translate(-1574.03)" xlink:href="#linear-gradient-27"/><linearGradient id="linear-gradient-34" x1="587.05" y1="1040.7" x2="602.25" y2="1040.7" gradientTransform="matrix(1, 0, 0, 1, 0, 0)" xlink:href="#linear-gradient-4"/><linearGradient id="linear-gradient-35" x1="499.24" y1="1062.39" x2="526.88" y2="1062.39" gradientTransform="matrix(1, 0, 0, 1, 0, 0)" xlink:href="#linear-gradient-4"/><linearGradient id="linear-gradient-36" x1="414.15" y1="1102.86" x2="476.38" y2="1102.86" gradientTransform="matrix(1, 0, 0, 1, 0, 0)" xlink:href="#linear-gradient-4"/><linearGradient id="linear-gradient-37" x1="-562.82" y1="1040.92" x2="-481.7" y2="1040.92" gradientTransform="matrix(-1, 0, 0, 1, 239.38, 0)" xlink:href="#linear-gradient-2"/><linearGradient id="linear-gradient-38" x1="686.85" y1="1184.18" x2="752.03" y2="1184.18" gradientTransform="matrix(1, 0, 0, 1, 0, 0)" xlink:href="#linear-gradient"/><linearGradient id="linear-gradient-39" x1="-372.31" y1="1228.84" x2="-384.21" y2="1121.75" xlink:href="#linear-gradient-27"/><linearGradient id="linear-gradient-40" x1="668.92" y1="1173.39" x2="692.63" y2="1173.39" gradientTransform="matrix(1, 0, 0, 1, 0, 0)" xlink:href="#linear-gradient"/><linearGradient id="linear-gradient-41" x1="716.9" y1="1112.19" x2="742.87" y2="1112.19" gradientTransform="matrix(1, 0, 0, 1, 0, 0)" xlink:href="#linear-gradient"/><linearGradient id="linear-gradient-42" x1="704.73" y1="1128.58" x2="724" y2="1128.58" gradientTransform="matrix(1, 0, 0, 1, 0, 0)" xlink:href="#linear-gradient"/><linearGradient id="linear-gradient-43" x1="1942.21" y1="966.43" x2="1683.1" y2="1964.46" xlink:href="#linear-gradient-2"/><linearGradient id="linear-gradient-44" x1="1968.75" y1="957.24" x2="1699.95" y2="1992.61" xlink:href="#linear-gradient-2"/><linearGradient id="linear-gradient-45" x1="1918.53" y1="960.28" x2="1659.43" y2="1958.32" xlink:href="#linear-gradient-2"/><linearGradient id="linear-gradient-46" x1="1887.04" y1="1293.46" x2="1973.77" y2="1500.65" gradientTransform="matrix(1, 0, 0, 1, 0, 0)" xlink:href="#linear-gradient-27"/><linearGradient id="linear-gradient-47" x1="1899.63" y1="1383.74" x2="1881.46" y2="1662.35" gradientTransform="matrix(1, 0, 0, 1, 0, 0)" xlink:href="#linear-gradient-21"/><linearGradient id="linear-gradient-48" x1="1780.72" y1="998.86" x2="1797.59" y2="1203.64" gradientTransform="matrix(1, 0, 0, 1, 0, 0)" xlink:href="#linear-gradient-27"/><linearGradient id="linear-gradient-49" x1="1930.62" y1="1387.67" x2="1977.45" y2="1214.97" gradientTransform="matrix(1, 0, 0, 1, 0, 0)" xlink:href="#linear-gradient-21"/><linearGradient id="linear-gradient-50" x1="1724.29" y1="1372.3" x2="1706.12" y2="1650.91" gradientTransform="matrix(1, 0, 0, 1, 0, 0)" xlink:href="#linear-gradient-21"/><linearGradient id="linear-gradient-51" x1="1968.46" y1="933.87" x2="2106.98" y2="1235.35" gradientTransform="matrix(1, 0, 0, 1, 0, 0)" xlink:href="#linear-gradient-21"/><linearGradient id="linear-gradient-52" x1="1959.21" y1="834.66" x2="1961.62" y2="946.68" gradientTransform="matrix(1, 0, 0, 1, 0, 0)" xlink:href="#linear-gradient-27"/><linearGradient id="linear-gradient-53" x1="2047.72" y1="816.01" x2="1921.24" y2="816.01" gradientTransform="matrix(1, 0, 0, 1, 0, 0)" xlink:href="#linear-gradient-27"/><linearGradient id="linear-gradient-54" x1="2116.45" y1="649.24" x2="1923.26" y2="850.23" xlink:href="#linear-gradient-2"/><linearGradient id="linear-gradient-55" x1="2047.72" y1="828.92" x2="1921.24" y2="828.92" gradientTransform="matrix(1, 0, 0, 1, 0, 0)" xlink:href="#linear-gradient-27"/><linearGradient id="linear-gradient-56" x1="2013.84" y1="894.85" x2="2016.25" y2="1088.78" gradientTransform="matrix(1, 0, 0, 1, 0, 0)" xlink:href="#linear-gradient-27"/><linearGradient id="linear-gradient-57" x1="2202.31" y1="731.77" x2="2009.13" y2="932.76" xlink:href="#linear-gradient-2"/><linearGradient id="linear-gradient-58" x1="1982.78" y1="1259.8" x2="1828.62" y2="1302.05" gradientTransform="translate(8.67 -86.8) rotate(-2.83)" xlink:href="#linear-gradient-2"/><linearGradient id="linear-gradient-59" x1="1842.66" y1="973.96" x2="1733.28" y2="1089.57" xlink:href="#linear-gradient-2"/><linearGradient id="linear-gradient-60" x1="1471" y1="1140.68" x2="2286.41" y2="1140.68" xlink:href="#linear-gradient-3"/><linearGradient id="linear-gradient-61" x1="1517.83" y1="1319.41" x2="1678.8" y2="1319.41" xlink:href="#linear-gradient-3"/><linearGradient id="linear-gradient-62" x1="1536.42" y1="1319.41" x2="1697.39" y2="1319.41" xlink:href="#linear-gradient-3"/><linearGradient id="linear-gradient-63" x1="2096.5" y1="1319.41" x2="2257.47" y2="1319.41" xlink:href="#linear-gradient-3"/><linearGradient id="linear-gradient-64" x1="2115.09" y1="1319.41" x2="2276.05" y2="1319.41" xlink:href="#linear-gradient-3"/></defs><title>20943646 [Convertido]</title><path class="cls-1" d="M1982.49,297.76c132.39,41.81,244.75,151.3,279,286.77,29,114.71-8,224.48,3.55,338.17,9.85,97.08,27.32,178.54-1.52,277.81-14,48.22-34.74,95.07-66.15,134.25C2026,1548.51,1660.94,1475.66,1419,1468.25c-202.3-6.2-414.25-2.38-614.59-35.16-129.28-21.15-611.58-137.82-305.63-293.64-12.93,6.58-126.41-156-134.61-167.84-77.16-111-148.63-238.1-167-374C145.5,216.3,578.31,42,893.74,132.87q28.69,8.26,56.49,19.31c97.33,38.81,185.38,99.94,285.56,131.63,102.86,32.54,250.41,47.41,357.78,40.3,82.72-5.47,161.92-37.14,244.57-43.57C1887.05,276.73,1936,283.07,1982.49,297.76Z" transform="translate(-147.42 -109.22)"/><path class="cls-2" d="M2171.45,443.37H1813.8A13.83,13.83,0,0,1,1800,429.53h0a13.84,13.84,0,0,1,13.83-13.84h357.65a13.84,13.84,0,0,1,13.84,13.84h0A13.84,13.84,0,0,1,2171.45,443.37Z" transform="translate(-147.42 -109.22)"/><path class="cls-2" d="M2214.42,497.58H1856.78a13.83,13.83,0,0,1-13.84-13.84h0a13.84,13.84,0,0,1,13.84-13.84h357.64a13.84,13.84,0,0,1,13.84,13.84h0A13.84,13.84,0,0,1,2214.42,497.58Z" transform="translate(-147.42 -109.22)"/><path class="cls-2" d="M2112.72,606H1856.78a13.84,13.84,0,0,1-13.84-13.84h0a13.84,13.84,0,0,1,13.84-13.84h255.94a13.84,13.84,0,0,1,13.84,13.84h0A13.84,13.84,0,0,1,2112.72,606Z" transform="translate(-147.42 -109.22)"/><path class="cls-2" d="M2254.53,551.79H1896.89A13.84,13.84,0,0,1,1883.05,538h0a13.84,13.84,0,0,1,13.84-13.84h357.64A13.84,13.84,0,0,1,2268.37,538h0A13.84,13.84,0,0,1,2254.53,551.79Z" transform="translate(-147.42 -109.22)"/><path class="cls-3" d="M1563.14,988.43a1.46,1.46,0,0,0,.82,1.49l16,7.8a78,78,0,0,0,6.77,24.24l-9.68,15a1.46,1.46,0,0,0,.08,1.7l13.19,16.84a1.47,1.47,0,0,0,1.63.48l16.86-5.82a77.59,77.59,0,0,0,21.92,12.36l3.74,17.43a1.47,1.47,0,0,0,1.25,1.15l21.24,2.57a1.45,1.45,0,0,0,1.49-.81l7.8-16a77.67,77.67,0,0,0,24.24-6.77l15,9.68a1.47,1.47,0,0,0,1.7-.07l16.84-13.2a1.45,1.45,0,0,0,.48-1.63l-5.82-16.86a77.72,77.72,0,0,0,12.37-21.92l17.42-3.73a1.49,1.49,0,0,0,1.15-1.26l2.57-21.24a1.45,1.45,0,0,0-.81-1.49l-16-7.8a77.48,77.48,0,0,0-6.77-24.24l9.69-15a1.47,1.47,0,0,0-.08-1.7L1725,922.76a1.47,1.47,0,0,0-1.63-.48l-16.85,5.82a77.59,77.59,0,0,0-21.92-12.36l-3.74-17.43a1.48,1.48,0,0,0-1.26-1.15l-21.23-2.57a1.46,1.46,0,0,0-1.5.81l-7.79,16a77.67,77.67,0,0,0-24.24,6.77l-15-9.68a1.47,1.47,0,0,0-1.7.07l-16.84,13.2a1.47,1.47,0,0,0-.48,1.63l5.83,16.86a77.48,77.48,0,0,0-12.37,21.92l-17.43,3.74a1.45,1.45,0,0,0-1.14,1.25Zm76.8-6.15a19,19,0,1,1,10.9,24.56A19,19,0,0,1,1639.94,982.28Z" transform="translate(-147.42 -109.22)"/><path class="cls-3" d="M1700.74,856.83a.82.82,0,0,0,.45.83l8.91,4.33a42.78,42.78,0,0,0,3.76,13.46l-5.38,8.32a.81.81,0,0,0,0,.94l7.33,9.36a.8.8,0,0,0,.9.26l9.37-3.23a43.22,43.22,0,0,0,12.17,6.87l2.08,9.67a.81.81,0,0,0,.7.64l11.79,1.43a.82.82,0,0,0,.83-.45l4.33-8.9a43,43,0,0,0,13.46-3.76l8.32,5.38a.8.8,0,0,0,.94-.05l9.36-7.32a.81.81,0,0,0,.26-.91l-3.23-9.36a43.41,43.41,0,0,0,6.87-12.18l9.67-2.07a.83.83,0,0,0,.64-.7l1.43-11.8a.83.83,0,0,0-.45-.83l-8.9-4.33a43.12,43.12,0,0,0-3.76-13.46l5.38-8.32a.8.8,0,0,0,0-.94l-7.32-9.35a.83.83,0,0,0-.91-.27l-9.36,3.24a42.93,42.93,0,0,0-12.18-6.87l-2.07-9.68a.83.83,0,0,0-.7-.64l-11.8-1.43a.83.83,0,0,0-.83.45l-4.33,8.9a43.13,43.13,0,0,0-13.46,3.77l-8.32-5.38a.81.81,0,0,0-.94,0l-9.35,7.33a.82.82,0,0,0-.27.9l3.24,9.37a42.73,42.73,0,0,0-6.87,12.17l-9.68,2.08a.81.81,0,0,0-.64.7Zm42.66-3.41a10.55,10.55,0,1,1,6,13.64A10.54,10.54,0,0,1,1743.4,853.42Z" transform="translate(-147.42 -109.22)"/><path class="cls-3" d="M1694.75,1149.09a4.75,4.75,0,0,0,2.63,4.83l51.77,25.18a251.12,251.12,0,0,0,21.88,78.31l-31.29,48.38a4.75,4.75,0,0,0,.25,5.49l42.63,54.39a4.73,4.73,0,0,0,5.27,1.56l54.45-18.82a250.92,250.92,0,0,0,70.82,40l12.08,56.29a4.74,4.74,0,0,0,4.06,3.71l68.6,8.32a4.74,4.74,0,0,0,4.82-2.63l25.19-51.78a250.84,250.84,0,0,0,78.31-21.87l48.38,31.28a4.72,4.72,0,0,0,5.49-.25l54.39-42.62a4.74,4.74,0,0,0,1.55-5.28l-18.81-54.45a251.25,251.25,0,0,0,40-70.81l56.29-12.08a4.74,4.74,0,0,0,3.7-4.06l8.32-68.6a4.72,4.72,0,0,0-2.62-4.83l-51.78-25.18a250.9,250.9,0,0,0-21.87-78.32l31.28-48.37a4.72,4.72,0,0,0-.25-5.49L2217.62,937a4.74,4.74,0,0,0-5.27-1.55l-54.45,18.81a251,251,0,0,0-70.81-40L2075,858a4.74,4.74,0,0,0-4.06-3.71l-68.61-8.32a4.73,4.73,0,0,0-4.82,2.63l-25.19,51.77A251.2,251.2,0,0,0,1894,922.22l-48.37-31.29a4.77,4.77,0,0,0-5.5.25l-54.39,42.63a4.73,4.73,0,0,0-1.55,5.27L1803,993.54a250.84,250.84,0,0,0-40,70.81l-56.3,12.08a4.72,4.72,0,0,0-3.7,4.06Zm248.12-19.85a61.36,61.36,0,1,1,35.18,79.33A61.35,61.35,0,0,1,1942.87,1129.24Z" transform="translate(-147.42 -109.22)"/><path class="cls-2" d="M2042.13,1315.76a4.84,4.84,0,0,1-3.7-1.72l-3.09-3.66a2.24,2.24,0,1,1,3.42-2.9l3.1,3.66a.34.34,0,0,0,.27.13l3.12-1.19a2.25,2.25,0,0,1,1.62,4.19l-3,1.16A4.77,4.77,0,0,1,2042.13,1315.76Zm-90.35-2.06a4.68,4.68,0,0,1-2-.41l-5.34-2.35a2.25,2.25,0,0,1,1.81-4.11l5.34,2.35a.43.43,0,0,0,.4-.07l1.47-1.6a2.25,2.25,0,0,1,3.3,3l-1.48,1.6A4.85,4.85,0,0,1,1951.78,1313.7Zm104.74-3.34a2.25,2.25,0,0,1-.81-4.34l10.47-4.06a2.25,2.25,0,0,1,1.62,4.19l-10.46,4.06A2.33,2.33,0,0,1,2056.52,1310.36Zm-121.4-3.76a2.21,2.21,0,0,1-.9-.19l-10.27-4.53a2.25,2.25,0,1,1,1.81-4.11l10.27,4.53a2.25,2.25,0,0,1-.91,4.3Zm27.67-3.55a2.25,2.25,0,0,1-1.65-3.77l7.63-8.23a2.24,2.24,0,0,1,3.29,3l-7.62,8.23A2.25,2.25,0,0,1,1962.79,1303.05Zm67-.45a2.25,2.25,0,0,1-1.71-.79l-7.25-8.57a2.25,2.25,0,0,1,3.43-2.9l7.25,8.57a2.24,2.24,0,0,1-.27,3.16A2.2,2.2,0,0,1,2029.8,1302.6Zm47.65-.36a2.25,2.25,0,0,1-.81-4.34l1-.37a.35.35,0,0,0,.22-.32l-.26-7a2.24,2.24,0,1,1,4.48-.17l.27,7a4.94,4.94,0,0,1-3.09,4.7l-1,.37A2.28,2.28,0,0,1,2077.45,1302.24Zm-162.69-5.17a2.06,2.06,0,0,1-1.82-1,4.82,4.82,0,0,1-.68-2.48v-.42l.8-9.56a2.22,2.22,0,0,1,2.43-2,2.25,2.25,0,0,1,2,2.42l-.8,9.58a2.36,2.36,0,0,1-.76,3.18A2.32,2.32,0,0,1,1914.76,1297.07Zm87-5a2.25,2.25,0,0,1,0-4.49c3.65,0,7.36-.21,11-.55a2.23,2.23,0,0,1,2.44,2,2.26,2.26,0,0,1-2,2.44c-3.78.34-7.61.53-11.39.56Zm-11.21-.35h-.16c-3.8-.27-7.61-.71-11.33-1.29a2.24,2.24,0,1,1,.69-4.43c3.6.56,7.29,1,11,1.25a2.24,2.24,0,0,1-.16,4.48Zm88.87-10.54a2.25,2.25,0,0,1-2.24-2.16l-.42-11.21a2.24,2.24,0,0,1,2.15-2.33,2.17,2.17,0,0,1,2.33,2.16l.43,11.21a2.25,2.25,0,0,1-2.16,2.33Zm-163.12-6.32h-.19a2.23,2.23,0,0,1-2-2.42l.81-9.7a2.24,2.24,0,0,1,3.29-2.91l1.37,1-1,11.93A2.25,2.25,0,0,1,1916.25,1274.84Zm169.91-12.41a2.24,2.24,0,0,1-1.38-4c2.87-2.26,5.69-4.67,8.4-7.17a2.24,2.24,0,0,1,3,3.3c-2.79,2.58-5.71,5.07-8.67,7.4A2.25,2.25,0,0,1,2086.16,1262.43Zm-178-5.73a2.25,2.25,0,0,1-1.5-.57c-2.82-2.53-5.57-5.2-8.18-8a2.24,2.24,0,0,1,3.26-3.08c2.53,2.66,5.19,5.25,7.91,7.69a2.25,2.25,0,0,1-1.49,3.92Zm194.51-9.51a2.24,2.24,0,0,1-1.66-3.76c2.48-2.7,4.88-5.54,7.13-8.43a2.24,2.24,0,0,1,3.54,2.76c-2.32,3-4.8,5.92-7.36,8.71A2.24,2.24,0,0,1,2102.62,1247.19Zm-101.34-2.37c-.89,0-1.78,0-2.68,0a2.25,2.25,0,0,1-2.18-2.31,2.18,2.18,0,0,1,2.31-2.18,88.53,88.53,0,0,0,10.93-.36,2.25,2.25,0,0,1,.43,4.47C2007.17,1244.68,2004.21,1244.82,2001.28,1244.82Zm-13.78-1.06a1.94,1.94,0,0,1-.34,0,93.6,93.6,0,0,1-11.23-2.44,2.24,2.24,0,0,1,1.22-4.32,88.9,88.9,0,0,0,10.69,2.32,2.24,2.24,0,0,1-.34,4.46Zm33.45-1.09a2.25,2.25,0,0,1-.48-4.44,89.44,89.44,0,0,0,10.52-3,2.25,2.25,0,0,1,1.49,4.24,95.44,95.44,0,0,1-11,3.15A2.61,2.61,0,0,1,2021,1242.67Zm-128.26-2.25a2.24,2.24,0,0,1-1.75-.84c-2-2.51-4-5.12-5.83-7.79a2.25,2.25,0,0,1,.57-4.39l1.81-.07.7,1c2,2.88,4.07,5.71,6.24,8.41a2.24,2.24,0,0,1-1.74,3.65Zm250.12-.81-.42,0a2.24,2.24,0,0,1,.41-4.47.35.35,0,0,0,.33-.21l3.24-7.33a2.24,2.24,0,1,1,4.1,1.81l-3.23,7.33A4.84,4.84,0,0,1,2142.81,1239.61Zm-11.39-.94h-.19l-11.18-.93a2.25,2.25,0,0,1,.37-4.48l11.19.94a2.24,2.24,0,0,1-.19,4.48Zm-165.47-1a2.18,2.18,0,0,1-.86-.18c-.53-.22-1-.44-1.58-.68a92.56,92.56,0,0,1-8.73-4.4,2.24,2.24,0,1,1,2.22-3.9,92.52,92.52,0,0,0,8.32,4.2l1.5.64a2.25,2.25,0,0,1-.87,4.32Zm76.12-2.46a2.24,2.24,0,0,1-1-4.25,90.94,90.94,0,0,0,9.48-5.46,2.25,2.25,0,1,1,2.47,3.75,93.45,93.45,0,0,1-10,5.73A2.21,2.21,0,0,1,2042.07,1235.22Zm-178.73-2.48a2.24,2.24,0,0,1-.09-4.48l11.22-.43a2.19,2.19,0,0,1,2.33,2.16,2.25,2.25,0,0,1-2.16,2.33l-11.22.42Zm-10.87-.84a2.17,2.17,0,0,1-1.82-1,4.52,4.52,0,0,1-.5-1l-3.85-9.93a2.24,2.24,0,0,1,4.18-1.62l3.85,9.93a2.26,2.26,0,0,1-1.86,3.54Zm94-5.33a2.23,2.23,0,0,1-1.34-.45,93,93,0,0,1-8.77-7.43,2.25,2.25,0,0,1,3.11-3.24,89.36,89.36,0,0,0,8.34,7.08,2.24,2.24,0,0,1-1.34,4Zm114.24-3.68a2.25,2.25,0,0,1-1.46-4,88.33,88.33,0,0,0,7.88-7.6,2.24,2.24,0,1,1,3.31,3,93.12,93.12,0,0,1-8.27,8A2.26,2.26,0,0,1,2060.75,1222.89Zm92.2-2.43a2.47,2.47,0,0,1-.91-.19,2.25,2.25,0,0,1-1.14-3l4.53-10.27a2.24,2.24,0,1,1,4.1,1.81l-4.53,10.27A2.24,2.24,0,0,1,2153,1220.46Zm-222.59-9.4a2.22,2.22,0,0,1-1.74-.83c-1.32-1.62-2.59-3.29-3.78-5a2.25,2.25,0,1,1,3.67-2.59c1.13,1.61,2.34,3.2,3.59,4.74a2.25,2.25,0,0,1-.32,3.16A2.3,2.3,0,0,1,1930.36,1211.06Zm-86,0a2.23,2.23,0,0,1-2.09-1.43l-4.06-10.47a2.25,2.25,0,0,1,4.19-1.62l4.05,10.47a2.24,2.24,0,0,1-1.28,2.9A2.28,2.28,0,0,1,1844.33,1211Zm231.54-4.66a2.24,2.24,0,0,1-1.83-3.54,89.43,89.43,0,0,0,5.77-9.29,2.24,2.24,0,1,1,4,2.13,92.32,92.32,0,0,1-6.06,9.76A2.26,2.26,0,0,1,2075.87,1206.36Zm83.58-6.32a2.19,2.19,0,0,1-1.52-.6l-8.23-7.63a2.24,2.24,0,1,1,3.05-3.29l8.23,7.63a2.24,2.24,0,0,1,.12,3.17A2.22,2.22,0,0,1,2159.45,1200Zm-317.73-9a2.24,2.24,0,0,1-1.45-4l8.57-7.25a2.25,2.25,0,0,1,2.9,3.43l-8.57,7.25A2.28,2.28,0,0,1,1841.72,1191.09Zm244.78-4.43a2.37,2.37,0,0,1-.82-.15,2.25,2.25,0,0,1-1.27-2.91,88.28,88.28,0,0,0,3.37-10.41,2.25,2.25,0,1,1,4.35,1.12,94.69,94.69,0,0,1-3.54,10.93A2.24,2.24,0,0,1,2086.5,1186.66Zm56.49-1.88a2.21,2.21,0,0,1-1.52-.59l-7.2-6.67.23-1.22c.16-.86.31-1.71.46-2.57a2.25,2.25,0,1,1,4.43.74c-.08.48-.17,1-.25,1.44l5.38,5a2.26,2.26,0,0,1,.12,3.18A2.28,2.28,0,0,1,2143,1184.78Zm-284.13-8.19a2.25,2.25,0,0,1-1.46-4l3.61-3.05c-.18-1.35-.33-2.71-.47-4.08a2.24,2.24,0,1,1,4.46-.45c.18,1.72.38,3.43.63,5.13l.17,1.23-5.5,4.65A2.2,2.2,0,0,1,1858.86,1176.59Zm279.71-11.38h-.19a2.23,2.23,0,0,1-2-2.42c.3-3.65.46-7.36.47-11a2.26,2.26,0,0,1,2.25-2.24h0a2.24,2.24,0,0,1,2.24,2.25c0,3.79-.17,7.63-.49,11.4A2.24,2.24,0,0,1,2138.57,1165.21Zm-46.5-.23-.29,0a2.25,2.25,0,0,1-1.94-2.51,88.61,88.61,0,0,0,.73-10.92,2.24,2.24,0,0,1,2.24-2.23h0a2.24,2.24,0,0,1,2.24,2.25,93.61,93.61,0,0,1-.76,11.47A2.25,2.25,0,0,1,2092.07,1165Zm-230-8.66a2.24,2.24,0,0,1-2.24-2.2c0-1,0-1.93,0-2.9,0-2.82.08-5.68.25-8.5a2.25,2.25,0,0,1,4.49.27c-.17,2.73-.25,5.5-.25,8.23,0,.93,0,1.87,0,2.81a2.25,2.25,0,0,1-2.2,2.29Zm276.55-13.53a2.25,2.25,0,0,1-2.24-2.07c-.21-2.75-.52-5.53-.91-8.28l-.17-1.23,3.05-2.58a2.25,2.25,0,0,1,2.9,3.43l-1.16,1c.32,2.43.58,4.89.77,7.32a2.24,2.24,0,0,1-2.06,2.41Zm-46.46-.2a2.23,2.23,0,0,1-2.22-2,90,90,0,0,0-2-10.76,2.24,2.24,0,0,1,4.36-1.07,94.61,94.61,0,0,1,2.05,11.3,2.25,2.25,0,0,1-2,2.5ZM1911.71,1135a2.49,2.49,0,0,1-.46,0,2.24,2.24,0,0,1-1.74-2.65,94.56,94.56,0,0,1,3-11.09,2.25,2.25,0,1,1,4.26,1.44,89.5,89.5,0,0,0-2.87,10.56A2.23,2.23,0,0,1,1911.71,1135Zm-48.26-1a1.73,1.73,0,0,1-.32,0,2.25,2.25,0,0,1-1.91-2.54q.35-2.32.75-4.65l-3-2.81a2.24,2.24,0,0,1,3-3.29l4.85,4.49-.23,1.22q-.54,2.84-.94,5.68A2.25,2.25,0,0,1,1863.45,1133.94Zm284.93-8.59a2.24,2.24,0,0,1-1.45-4l8.57-7.25a2.25,2.25,0,0,1,2.9,3.43l-8.57,7.25A2.28,2.28,0,0,1,2148.38,1125.35Zm-61.55-4.5a2.26,2.26,0,0,1-2.1-1.44,87.7,87.7,0,0,0-4.5-10,2.24,2.24,0,0,1,4-2.09,94.69,94.69,0,0,1,4.73,10.47,2.25,2.25,0,0,1-1.3,2.9A2.21,2.21,0,0,1,2086.83,1120.85Zm-234.59-4a2.24,2.24,0,0,1-1.53-.6l-8.23-7.63a2.24,2.24,0,0,1,3-3.29l8.23,7.63a2.24,2.24,0,0,1-1.52,3.89Zm66.63-3.13a2.24,2.24,0,0,1-2-3.21,94.42,94.42,0,0,1,5.58-10,2.24,2.24,0,1,1,3.78,2.42,90.76,90.76,0,0,0-5.32,9.56A2.24,2.24,0,0,1,1918.87,1113.75Zm243.12-4.2a2.26,2.26,0,0,1-2.09-1.44l-4.06-10.46A2.25,2.25,0,1,1,2160,1096l4.06,10.46a2.25,2.25,0,0,1-1.28,2.9A2.14,2.14,0,0,1,2162,1109.55Zm-85.6-8.51a2.22,2.22,0,0,1-1.84-1,89.12,89.12,0,0,0-6.79-8.58,2.25,2.25,0,0,1,3.35-3,93.82,93.82,0,0,1,7.13,9,2.24,2.24,0,0,1-.57,3.12A2.16,2.16,0,0,1,2076.39,1101Zm-234-1.18a2.24,2.24,0,0,1-2.06-3.15l4.53-10.27a2.25,2.25,0,0,1,4.11,1.81l-4.53,10.27A2.24,2.24,0,0,1,1842.34,1099.86Zm88.6-5a2.25,2.25,0,0,1-1.73-3.68,91.75,91.75,0,0,1,7.87-8.38,2.25,2.25,0,0,1,3.08,3.27,87,87,0,0,0-7.49,8A2.27,2.27,0,0,1,1930.94,1094.89Zm222.94-6.27a2.24,2.24,0,0,1-2.09-1.44l-4.06-10.46a2.24,2.24,0,1,1,4.18-1.62l4.06,10.46a2.24,2.24,0,0,1-1.28,2.91A2.32,2.32,0,0,1,2153.88,1088.62Zm-92.43-4.26a2.25,2.25,0,0,1-1.48-.55,89.12,89.12,0,0,0-8.68-6.66,2.24,2.24,0,0,1,2.51-3.72,92.26,92.26,0,0,1,9.12,7,2.24,2.24,0,0,1-1.47,3.93Zm-114.2-4.81a2.25,2.25,0,0,1-1.33-4.06,94.08,94.08,0,0,1,9.68-6.2,2.24,2.24,0,1,1,2.18,3.92,90.51,90.51,0,0,0-9.21,5.9A2.18,2.18,0,0,1,1947.25,1079.55Zm-95.85-.23a2.22,2.22,0,0,1-.91-.19,2.25,2.25,0,0,1-1.15-3l4.53-10.27a4.86,4.86,0,0,1,4.43-2.88h.42l3.17.27a2.24,2.24,0,1,1-.38,4.47l-3.18-.26c-.24,0-.29.08-.35.21l-4.53,10.26A2.24,2.24,0,0,1,1851.4,1079.32Zm262.22-4-.7-1c-1.37-2-2.81-4-4.3-5.93a2.25,2.25,0,0,1,3.57-2.74c1.28,1.68,2.53,3.39,3.73,5.11l2.54-.09a2.19,2.19,0,0,1,2.33,2.15,2.25,2.25,0,0,1-2.16,2.33Zm16.14-.61a2.25,2.25,0,0,1-.09-4.49l11.22-.43a2.19,2.19,0,0,1,2.33,2.16,2.25,2.25,0,0,1-2.16,2.33l-11.22.42Zm-86.88-2.83a2.23,2.23,0,0,1-1-.25q-2.22-1.12-4.53-2.15c-1.81-.8-3.66-1.54-5.5-2.21a2.25,2.25,0,1,1,1.54-4.22c1.93.7,3.87,1.49,5.77,2.32q2.43,1.08,4.76,2.26a2.25,2.25,0,0,1-1,4.25Zm-158.81-2.2h-.19l-11.18-.94a2.24,2.24,0,0,1,.37-4.47l11.18.94a2.24,2.24,0,0,1-.18,4.48Zm82.73-1a2.24,2.24,0,0,1-.85-4.32,94.83,94.83,0,0,1,10.89-3.68A2.24,2.24,0,0,1,1978,1065a89.52,89.52,0,0,0-10.36,3.51A2.33,2.33,0,0,1,1966.8,1068.63Zm-73.55-2.64a2.25,2.25,0,0,1-1.74-3.67c2.39-2.93,4.94-5.81,7.56-8.53a2.24,2.24,0,1,1,3.23,3.11c-2.53,2.64-5,5.42-7.31,8.26A2.27,2.27,0,0,1,1893.25,1066Zm128.6-1.81a2.22,2.22,0,0,1-.51-.06,89.29,89.29,0,0,0-10.79-1.8,2.25,2.25,0,1,1,.47-4.47,94.65,94.65,0,0,1,11.33,1.9,2.24,2.24,0,0,1-.5,4.43Zm-33.45-1.41a2.24,2.24,0,0,1-.31-4.46,93.68,93.68,0,0,1,11.45-.94,2.3,2.3,0,0,1,2.28,2.2,2.23,2.23,0,0,1-2.2,2.29,88.81,88.81,0,0,0-10.9.89A1.67,1.67,0,0,1,1988.4,1062.77Zm114.82-2.18a2.23,2.23,0,0,1-1.66-.74c-2.46-2.71-5.06-5.36-7.73-7.87a2.24,2.24,0,1,1,3.07-3.27c2.76,2.59,5.45,5.33,8,8.13a2.25,2.25,0,0,1-1.67,3.75Zm-194.43-10.77a2.25,2.25,0,0,1-1.49-3.93c2.84-2.5,5.82-4.92,8.85-7.19a2.25,2.25,0,0,1,2.69,3.6c-2.94,2.19-5.82,4.53-8.57,7A2.23,2.23,0,0,1,1908.79,1049.82Zm178.09-4.58a2.23,2.23,0,0,1-1.4-.49c-.94-.75-1.9-1.48-2.86-2.21l-1-.75.73-8.75a2.21,2.21,0,0,1,2.43-2,2.25,2.25,0,0,1,2.05,2.42l-.53,6.3c.66.5,1.32,1,2,1.53a2.25,2.25,0,0,1-1.4,4ZM1922,1034a2.24,2.24,0,0,1-2.24-2.16l-.43-11.22a2.25,2.25,0,0,1,2.16-2.33,2.22,2.22,0,0,1,2.33,2.16l.42,11.22a2.24,2.24,0,0,1-2.16,2.32Zm163.49-9.68h-.18a2.23,2.23,0,0,1-2-2.42l.93-11.19a2.21,2.21,0,0,1,2.42-2,2.23,2.23,0,0,1,2,2.42l-.93,11.19A2.25,2.25,0,0,1,2085.53,1024.29Zm-60.61-7.08-.4,0c-3.6-.65-7.28-1.15-10.93-1.51a2.24,2.24,0,1,1,.43-4.46c3.77.36,7.57.88,11.3,1.55a2.24,2.24,0,0,1-.4,4.45Zm-44.29-1.68a2.23,2.23,0,0,1-1.72-.8l-7.25-8.57a2.25,2.25,0,0,1,3.43-2.9l7.25,8.58a2.24,2.24,0,0,1-.27,3.16A2.2,2.2,0,0,1,1980.63,1015.53Zm10.75-.16a2.25,2.25,0,0,1-.15-4.49c3.8-.25,7.63-.35,11.4-.3a2.25,2.25,0,1,1-.06,4.49c-3.65-.05-7.36,0-11,.29Zm-70.19-3.84a2.25,2.25,0,0,1-2.25-2.15l-.14-3.78a4.93,4.93,0,0,1,3.09-4.69l3.94-1.53a2.24,2.24,0,1,1,1.63,4.18l-4,1.53a.37.37,0,0,0-.22.33l.14,3.78a2.24,2.24,0,0,1-2.16,2.33Zm111.68-1.58a2.25,2.25,0,0,1-1.65-3.77l7.63-8.24a2.25,2.25,0,1,1,3.29,3.06l-7.62,8.23A2.25,2.25,0,0,1,2032.87,1010Zm46.32-3.61a2.25,2.25,0,0,1-.91-.19l-10.27-4.53a2.25,2.25,0,1,1,1.81-4.11l10.27,4.53a2.25,2.25,0,0,1-.9,4.3Zm-142.08-6.69a2.24,2.24,0,0,1-.81-4.33l10.46-4.06a2.24,2.24,0,1,1,1.62,4.18l-10.46,4.06A2.11,2.11,0,0,1,1937.11,999.65Zm29-1.26a2.21,2.21,0,0,1-1.71-.8l-5.17-6.11a.36.36,0,0,0-.27-.12l-1.76-4.16a4.91,4.91,0,0,1,5.46,1.39l5.16,6.11a2.24,2.24,0,0,1-1.71,3.69Zm92.52-1.11a2.29,2.29,0,0,1-.91-.19l-8.27-3.65a2.4,2.4,0,0,1-3.11-1.11,2.19,2.19,0,0,1,1-3,4.88,4.88,0,0,1,4,0l8.27,3.65a2.25,2.25,0,0,1-.9,4.3Z" transform="translate(-147.42 -109.22)"/><path class="cls-2" d="M2000.53,1187.22a35.89,35.89,0,0,1-8.27-1,2.24,2.24,0,1,1,1-4.36,31.34,31.34,0,0,0,10.4.68,2.25,2.25,0,0,1,.45,4.47C2003,1187.16,2001.74,1187.22,2000.53,1187.22Zm14.17-3.12a2.24,2.24,0,0,1-.94-4.28,31.24,31.24,0,0,0,8.6-5.89,2.25,2.25,0,0,1,3.12,3.23,35.65,35.65,0,0,1-9.84,6.74A2.21,2.21,0,0,1,2014.7,1184.1Zm-32.21-2.14a2.23,2.23,0,0,1-1.21-.35c-1-.62-1.91-1.29-2.81-2a36,36,0,0,1-6-6,2.25,2.25,0,1,1,3.51-2.8,31.6,31.6,0,0,0,5.29,5.24c.79.62,1.62,1.2,2.47,1.74a2.25,2.25,0,0,1-1.21,4.14Zm48.07-13.15a2.34,2.34,0,0,1-1-.24,2.26,2.26,0,0,1-1-3,31,31,0,0,0,3.12-10,2.25,2.25,0,0,1,4.45.61,35.78,35.78,0,0,1-3.57,11.38A2.22,2.22,0,0,1,2030.56,1168.81Zm-61.77-4.1a2.25,2.25,0,0,1-2.12-1.51,36.08,36.08,0,0,1-2-11.74,2.23,2.23,0,0,1,2.23-2.25h0a2.24,2.24,0,0,1,2.25,2.23,31.55,31.55,0,0,0,1.77,10.28,2.25,2.25,0,0,1-1.38,2.86A2.1,2.1,0,0,1,1968.79,1164.71Zm64.77-17.72a2.25,2.25,0,0,1-2.2-1.81,31.23,31.23,0,0,0-3.69-9.75,2.24,2.24,0,1,1,3.87-2.26,35.75,35.75,0,0,1,4.23,11.14A2.25,2.25,0,0,1,2034,1147,2.12,2.12,0,0,1,2033.56,1147Zm-64.86-4.32a2.28,2.28,0,0,1-.73-.12,2.25,2.25,0,0,1-1.4-2.85,36.14,36.14,0,0,1,13-17.49,2.25,2.25,0,0,1,2.63,3.64,31.61,31.61,0,0,0-11.33,15.3A2.24,2.24,0,0,1,1968.7,1142.67Zm53.73-14.69a2.28,2.28,0,0,1-1.46-.54c-.35-.3-.71-.6-1.09-.89a31.24,31.24,0,0,0-7.84-4.49,2.24,2.24,0,1,1,1.64-4.17,35.48,35.48,0,0,1,9,5.12c.43.33.85.67,1.25,1a2.24,2.24,0,0,1-1.46,4Zm-31.58-6.65a2.25,2.25,0,0,1-.65-4.4,35.83,35.83,0,0,1,11.82-1.49,2.23,2.23,0,0,1,2.15,2.33,2.19,2.19,0,0,1-2.33,2.15,32.11,32.11,0,0,0-10.35,1.31A2,2,0,0,1,1990.85,1121.33Z" transform="translate(-147.42 -109.22)"/><path class="cls-2" d="M1830.72,1265.16a2.23,2.23,0,0,1-1.88-1c-1-1.58-2-3.18-3-4.78a2.25,2.25,0,0,1,3.82-2.37c1,1.57,2,3.14,3,4.68a2.24,2.24,0,0,1-1.87,3.48Z" transform="translate(-147.42 -109.22)"/><path class="cls-2" d="M2000.45,1356.77c-2.52,0-5,0-7.57-.14a2.25,2.25,0,0,1-2.16-2.33,2.22,2.22,0,0,1,2.32-2.16c3.75.14,7.51.17,11.26.1a2.26,2.26,0,0,1,2.28,2.2,2.24,2.24,0,0,1-2.2,2.29C2003.07,1356.76,2001.76,1356.77,2000.45,1356.77Zm15.25-.57a2.24,2.24,0,0,1-.17-4.48c3.73-.28,7.5-.67,11.2-1.16a2.24,2.24,0,1,1,.58,4.45c-3.78.5-7.63.9-11.44,1.18Zm-34.09-.31h-.21c-3.8-.36-7.64-.82-11.42-1.39a2.24,2.24,0,1,1,.66-4.44c3.7.56,7.46,1,11.17,1.35a2.24,2.24,0,0,1-.2,4.48Zm56.64-2.65a2.24,2.24,0,0,1-.41-4.45c3.68-.69,7.38-1.5,11-2.39a2.25,2.25,0,0,1,1.08,4.36c-3.69.91-7.47,1.73-11.24,2.44A2,2,0,0,1,2038.25,1353.24Zm-79.14-.72a2.45,2.45,0,0,1-.46,0c-3.75-.78-7.51-1.67-11.19-2.66a2.24,2.24,0,1,1,1.16-4.33c3.59,1,7.28,1.83,11,2.59a2.24,2.24,0,0,1-.46,4.44Zm101.22-4.72a2.24,2.24,0,0,1-.65-4.39c3.59-1.1,7.17-2.31,10.66-3.6a2.24,2.24,0,1,1,1.55,4.21c-3.56,1.32-7.23,2.56-10.9,3.68A2.11,2.11,0,0,1,2060.33,1347.8Zm-123.2-1.15a2.13,2.13,0,0,1-.7-.11c-3.64-1.2-7.28-2.51-10.83-3.9a2.25,2.25,0,1,1,1.64-4.18c3.47,1.36,7,2.64,10.59,3.81a2.25,2.25,0,0,1-.7,4.38Zm144.54-6.73a2.24,2.24,0,0,1-.89-4.3c3.44-1.49,6.86-3.1,10.19-4.77a2.25,2.25,0,0,1,2,4c-3.4,1.71-6.91,3.35-10.42,4.88A2.19,2.19,0,0,1,2081.67,1339.92ZM1916,1338.34a2.27,2.27,0,0,1-.94-.2c-3.46-1.59-6.93-3.31-10.32-5.1a2.24,2.24,0,0,1,2.1-4c3.31,1.75,6.71,3.42,10.1,5a2.24,2.24,0,0,1-.94,4.28Zm186-8.63a2.24,2.24,0,0,1-1.12-4.19c3.26-1.87,6.48-3.85,9.58-5.88a2.25,2.25,0,0,1,2.46,3.76c-3.17,2.07-6.47,4.1-9.81,6A2.22,2.22,0,0,1,2102,1329.71Zm-206.17-2a2.21,2.21,0,0,1-1.15-.33c-3.27-2-6.52-4-9.69-6.21a2.25,2.25,0,0,1,2.53-3.71c3.1,2.11,6.28,4.16,9.47,6.08a2.24,2.24,0,0,1-1.16,4.17ZM2121,1317.28a2.24,2.24,0,0,1-1.33-4c3-2.21,6-4.54,8.86-6.92a2.24,2.24,0,1,1,2.86,3.46c-2.94,2.43-6,4.81-9.06,7.08A2.27,2.27,0,0,1,2121,1317.28Zm-244-2.4a2.16,2.16,0,0,1-1.36-.47l-1.47-1.13c-2.52-2-5-4-7.47-6.11a2.24,2.24,0,0,1,2.92-3.41c2.39,2,4.85,4,7.31,6l1.44,1.11a2.25,2.25,0,0,1,.41,3.15A2.22,2.22,0,0,1,1877,1314.88Zm261.53-12.09a2.24,2.24,0,0,1-1.53-3.89c2.74-2.54,5.45-5.19,8-7.88a2.25,2.25,0,1,1,3.23,3.12c-2.65,2.75-5.41,5.46-8.21,8A2.26,2.26,0,0,1,2138.56,1302.79Zm-278.79-2.72a2.25,2.25,0,0,1-1.56-.63c-2.76-2.64-5.47-5.4-8.07-8.19a2.24,2.24,0,0,1,3.28-3.06c2.54,2.73,5.2,5.42,7.9,8a2.26,2.26,0,0,1,.07,3.18A2.29,2.29,0,0,1,1859.77,1300.07Zm294.58-13.65a2.28,2.28,0,0,1-1.47-.54,2.26,2.26,0,0,1-.23-3.17c2.18-2.52,4.32-5.13,6.37-7.76l.74-1a2.24,2.24,0,0,1,3.56,2.73l-.76,1c-2.1,2.69-4.29,5.36-6.51,7.93A2.22,2.22,0,0,1,2154.35,1286.42Zm-310.09-3a2.23,2.23,0,0,1-1.73-.81c-2.44-2.93-4.83-6-7.11-9a2.25,2.25,0,0,1,3.61-2.68c2.23,3,4.57,6,7,8.85a2.25,2.25,0,0,1-1.72,3.68Zm324-15a2.21,2.21,0,0,1-1.27-.39,2.25,2.25,0,0,1-.58-3.12c2.12-3.08,4.17-6.26,6.11-9.46a2.25,2.25,0,0,1,3.84,2.34c-2,3.26-4.09,6.51-6.25,9.66A2.24,2.24,0,0,1,2168.24,1268.4Zm11.81-19.44a2.37,2.37,0,0,1-1.06-.26,2.26,2.26,0,0,1-.92-3c1.76-3.3,3.44-6.69,5-10.08a2.25,2.25,0,0,1,4.08,1.89c-1.61,3.47-3.33,6.93-5.13,10.3A2.23,2.23,0,0,1,2180.05,1249Zm9.55-20.64a2.17,2.17,0,0,1-.82-.16,2.23,2.23,0,0,1-1.26-2.91c1.37-3.47,2.67-7,3.84-10.58a2.25,2.25,0,1,1,4.26,1.42c-1.2,3.62-2.52,7.26-3.93,10.81A2.25,2.25,0,0,1,2189.6,1228.32Zm7.18-21.59a2.33,2.33,0,0,1-.59-.08,2.24,2.24,0,0,1-1.58-2.75c1-3.59,1.86-7.27,2.63-10.94a2.24,2.24,0,1,1,4.39.93c-.79,3.75-1.69,7.51-2.69,11.18A2.25,2.25,0,0,1,2196.78,1206.73Z" transform="translate(-147.42 -109.22)"/><path class="cls-2" d="M2201.48,1184.44a2.06,2.06,0,0,1-.35,0,2.24,2.24,0,0,1-1.87-2.56q.42-2.74.76-5.49a2.24,2.24,0,0,1,4.45.55q-.34,2.82-.78,5.62A2.23,2.23,0,0,1,2201.48,1184.44Z" transform="translate(-147.42 -109.22)"/><path class="cls-2" d="M2163.84,1032.46a2.23,2.23,0,0,1-1.8-.9c-1.1-1.49-2.23-3-3.37-4.41a2.25,2.25,0,1,1,3.53-2.78q1.76,2.24,3.44,4.51a2.24,2.24,0,0,1-1.8,3.58Z" transform="translate(-147.42 -109.22)"/><path class="cls-2" d="M1800,1120.88a2.17,2.17,0,0,1-.36,0,2.26,2.26,0,0,1-1.86-2.58c.6-3.7,1.31-7.44,2.12-11.12a2.24,2.24,0,1,1,4.38,1c-.78,3.6-1.48,7.26-2.06,10.88A2.25,2.25,0,0,1,1800,1120.88Zm4.79-21.86a2.11,2.11,0,0,1-.6-.08,2.25,2.25,0,0,1-1.56-2.76c1-3.62,2.13-7.26,3.34-10.82a2.24,2.24,0,1,1,4.25,1.44c-1.18,3.48-2.28,7-3.26,10.58A2.25,2.25,0,0,1,1804.79,1099Zm7.19-21.2a2.28,2.28,0,0,1-.84-.16,2.24,2.24,0,0,1-1.24-2.92c1.39-3.48,2.91-7,4.51-10.39a2.25,2.25,0,0,1,4.07,1.91c-1.57,3.34-3,6.75-4.42,10.15A2.23,2.23,0,0,1,1812,1077.82Zm9.49-20.28a2.14,2.14,0,0,1-1.06-.27,2.25,2.25,0,0,1-.92-3c1.78-3.3,3.68-6.61,5.64-9.82a2.24,2.24,0,0,1,3.83,2.34c-1.92,3.14-3.77,6.38-5.51,9.61A2.26,2.26,0,0,1,1821.47,1057.54Zm11.67-19.11a2.21,2.21,0,0,1-1.27-.39,2.25,2.25,0,0,1-.58-3.12c2.13-3.09,4.37-6.16,6.68-9.15a2.24,2.24,0,0,1,3.55,2.74c-2.25,2.92-4.45,5.93-6.53,9A2.23,2.23,0,0,1,1833.14,1038.43Zm13.69-17.72a2.28,2.28,0,0,1-1.47-.54,2.25,2.25,0,0,1-.23-3.17c2.45-2.85,5-5.66,7.62-8.37a2.25,2.25,0,0,1,3.24,3.12c-2.55,2.64-5.06,5.4-7.46,8.18A2.23,2.23,0,0,1,1846.83,1020.71Zm306.44-1.31a2.24,2.24,0,0,1-1.69-.76c-2.43-2.76-5-5.49-7.54-8.1a2.25,2.25,0,1,1,3.2-3.15c2.63,2.67,5.22,5.46,7.71,8.28a2.25,2.25,0,0,1-.2,3.17A2.21,2.21,0,0,1,2153.27,1019.4Zm-290.92-14.81a2.22,2.22,0,0,1-1.64-.72,2.24,2.24,0,0,1,.11-3.17c2.74-2.55,5.6-5.06,8.5-7.48a2.24,2.24,0,0,1,2.87,3.45c-2.84,2.36-5.63,4.82-8.31,7.32A2.24,2.24,0,0,1,1862.35,1004.59Zm275.22-1.14a2.2,2.2,0,0,1-1.51-.59c-2.72-2.47-5.54-4.91-8.39-7.22a2.25,2.25,0,0,1,2.84-3.49c2.91,2.38,5.79,4.86,8.57,7.39a2.25,2.25,0,0,1-1.51,3.91Zm-258-13.17a2.25,2.25,0,0,1-1.34-4c3-2.23,6.12-4.42,9.27-6.49a2.25,2.25,0,1,1,2.47,3.75c-3.08,2-6.13,4.16-9.07,6.35A2.28,2.28,0,0,1,1879.56,990.28Zm240.66-1a2.24,2.24,0,0,1-1.32-.43c-3-2.17-6.06-4.29-9.13-6.28a2.24,2.24,0,1,1,2.44-3.76c3.14,2,6.28,4.19,9.33,6.42a2.24,2.24,0,0,1-1.32,4Zm-222-11.33a2.25,2.25,0,0,1-1.13-4.19c3.25-1.89,6.59-3.71,9.93-5.42a2.25,2.25,0,0,1,2,4c-3.27,1.67-6.53,3.45-9.71,5.3A2.24,2.24,0,0,1,1898.24,978Zm203.19-.85a2.3,2.3,0,0,1-1.12-.3c-3.2-1.84-6.48-3.6-9.75-5.24a2.24,2.24,0,0,1,2-4c3.34,1.67,6.7,3.48,10,5.36a2.24,2.24,0,0,1-1.12,4.19Zm-183.26-9.33a2.25,2.25,0,0,1-.91-4.3c3.43-1.51,7-3,10.47-4.29a2.25,2.25,0,1,1,1.59,4.2c-3.44,1.3-6.89,2.71-10.24,4.2A2.25,2.25,0,0,1,1918.17,967.78Zm163.25-.71a2.21,2.21,0,0,1-.9-.19c-3.39-1.47-6.84-2.86-10.27-4.13a2.24,2.24,0,0,1,1.55-4.21c3.51,1.3,7,2.72,10.51,4.22a2.25,2.25,0,0,1-.89,4.31Zm-142.32-7.21a2.24,2.24,0,0,1-.67-4.38c3.58-1.13,7.24-2.18,10.88-3.12a2.25,2.25,0,0,1,1.12,4.35c-3.57.92-7.15,1.94-10.65,3A2.24,2.24,0,0,1,1939.1,959.86Zm121.32-.56a2.16,2.16,0,0,1-.66-.1c-3.51-1.08-7.1-2.07-10.68-3a2.25,2.25,0,0,1,1.09-4.36c3.65.91,7.32,1.93,10.91,3a2.25,2.25,0,0,1-.66,4.39Zm-99.64-5a2.24,2.24,0,0,1-.44-4.44c3.69-.74,7.44-1.38,11.16-1.91a2.24,2.24,0,0,1,.64,4.44c-3.64.52-7.32,1.15-10.92,1.87A2.18,2.18,0,0,1,1960.78,954.29Zm77.91-.38a2,2,0,0,1-.42,0c-3.6-.68-7.28-1.27-10.94-1.76a2.25,2.25,0,1,1,.6-4.45c3.73.5,7.49,1.1,11.17,1.8a2.24,2.24,0,0,1-.41,4.45Zm-55.75-2.78a2.25,2.25,0,0,1-.2-4.49c3.74-.32,7.54-.55,11.3-.67a2.21,2.21,0,0,1,2.32,2.17,2.24,2.24,0,0,1-2.17,2.31c-3.68.12-7.4.34-11,.67Zm33.56-.17h-.18c-3.68-.28-7.4-.47-11.06-.55a2.25,2.25,0,0,1,0-4.49h0c3.74.08,7.55.27,11.31.56a2.25,2.25,0,0,1-.17,4.49Z" transform="translate(-147.42 -109.22)"/><path class="cls-2" d="M1798,1137.6h-.18a2.25,2.25,0,0,1-2.06-2.41q.23-2.84.52-5.65a2.24,2.24,0,0,1,4.46.47q-.29,2.76-.5,5.52A2.26,2.26,0,0,1,1798,1137.6Z" transform="translate(-147.42 -109.22)"/><path class="cls-3" d="M479.11,1149.19A74.35,74.35,0,1,1,620,1101.47h0a79.57,79.57,0,0,0,44.63,47.88,94.63,94.63,0,0,1,53.18,57h0A88.91,88.91,0,0,0,773.33,1262a107.69,107.69,0,1,1-136.65,136.51q-1.53-4.52-2.64-9.07a111.09,111.09,0,0,0-53-70.18,95,95,0,0,1-48-82.39,62.23,62.23,0,0,0-26.39-50.83A73.92,73.92,0,0,1,479.11,1149.19Z" transform="translate(-147.42 -109.22)"/><path class="cls-4" d="M548.41,1127.1c16.37,26.93,34.68,52.87,53.65,78.15,4.76,6.31,9.49,12.65,14.43,18.83s9.69,12.51,14.76,18.57L646.31,1261l15.46,18c20.85,23.77,42.21,47.13,64.7,69.36,11,11.33,22.62,22.09,34.07,33,5.66,5.52,11.65,10.68,17.52,16l17.67,15.8.09.08a4,4,0,0,1-5.36,6l0,0L772.8,1403.1c-5.86-5.38-11.83-10.63-17.47-16.23-11.42-11.06-23-22-34-33.48-22.4-22.56-43.64-46.23-64.37-70.31l-15.35-18.23-14.95-18.55c-5-6.14-9.76-12.54-14.65-18.79s-9.59-12.67-14.32-19c-18.83-25.6-36.9-51.7-53.21-79.12a2.24,2.24,0,0,1,3.84-2.31Z" transform="translate(-147.42 -109.22)"/><path class="cls-4" d="M585.18,1187.44a2.24,2.24,0,0,1-1.84-3.53c12.16-17.46,9.43-65.05,9.4-65.52a2.24,2.24,0,0,1,4.48-.28c.13,2,2.84,49.64-10.2,68.37A2.25,2.25,0,0,1,585.18,1187.44Z" transform="translate(-147.42 -109.22)"/><path class="cls-4" d="M583.79,1187.91h0c-1.34,0-33.33-.86-56.89-13.12a2.24,2.24,0,1,1,2.07-4c22.65,11.78,54.6,12.6,54.92,12.61a2.25,2.25,0,0,1-.05,4.49Z" transform="translate(-147.42 -109.22)"/><path class="cls-4" d="M654.17,1275.91a2.21,2.21,0,0,1-1-.22,2.25,2.25,0,0,1-1.07-3c15-31.76,7.22-76.48,7.14-76.92a2.25,2.25,0,1,1,4.42-.8c.34,1.89,8.14,46.59-7.5,79.64A2.25,2.25,0,0,1,654.17,1275.91Z" transform="translate(-147.42 -109.22)"/><path class="cls-4" d="M632,1279.46c-13.56,0-32.32-2.56-53.74-12.61a2.24,2.24,0,0,1,1.91-4.06c41,19.24,72.63,9.75,73,9.65a2.25,2.25,0,0,1,1.34,4.29C653.79,1276.94,645.46,1279.46,632,1279.46Z" transform="translate(-147.42 -109.22)"/><path class="cls-4" d="M711,1383.29a116.78,116.78,0,0,1-41.47-7.35,2.25,2.25,0,0,1,1.6-4.2c37.68,14.31,74.61,2.16,75,2a2.24,2.24,0,1,1,1.44,4.25A123.37,123.37,0,0,1,711,1383.29Z" transform="translate(-147.42 -109.22)"/><path class="cls-4" d="M747.88,1377.33a2.25,2.25,0,0,1-2-3.37c.17-.29,16.4-29.24,6.68-73.39a2.25,2.25,0,0,1,4.39-1c10.11,46-6.47,75.36-7.18,76.59A2.24,2.24,0,0,1,747.88,1377.33Z" transform="translate(-147.42 -109.22)"/><path class="cls-2" d="M724.27,866.21A95.27,95.27,0,1,0,588.1,999.5h0A102,102,0,0,1,617,1078.26a121.21,121.21,0,0,0,34.35,93.83h0a113.93,113.93,0,0,1,31.35,95.73,138,138,0,1,0,235.21-77q-4.27-4.36-8.84-8.27a142.36,142.36,0,0,1-49.45-101.29,121.69,121.69,0,0,0-66.34-102.58A79.75,79.75,0,0,1,750.46,919,94.88,94.88,0,0,0,724.27,866.21Z" transform="translate(-147.42 -109.22)"/><path class="cls-4" d="M663,929.92c11,17.24,21,34.89,30.94,52.66,4.85,8.94,9.85,17.8,14.5,26.85s9.49,18,14,27.13q27.36,54.54,51,110.87c15.62,37.57,30.47,75.5,43.39,114.12,3.24,9.65,6.78,19.21,9.68,29l9.12,29.16c3.18,9.67,5.78,19.52,8.59,29.32l8.3,29.41a5.33,5.33,0,0,1-10.26,2.9.19.19,0,0,0,0-.08l-.05-.19-7.64-29.39c-2.58-9.79-5-19.64-7.92-29.33-5.71-19.43-11.24-38.93-17.73-58.13-12.24-38.64-26.42-76.64-41.38-114.32L756,1121.72l-12.22-27.85-3.06-7-3.2-6.89-6.4-13.8c-4.19-9.23-8.7-18.32-13.15-27.43-17.87-36.38-36.91-72.33-58.37-106.63l0,0a2,2,0,0,1,3.46-2.18Z" transform="translate(-147.42 -109.22)"/><path class="cls-4" d="M698.68,1010.88c-29.47,0-76-27-78.06-28.25a2.25,2.25,0,0,1,2.27-3.88c.53.32,53.52,31.13,80.74,27.32a2.24,2.24,0,0,1,.62,4.44A39.87,39.87,0,0,1,698.68,1010.88Z" transform="translate(-147.42 -109.22)"/><path class="cls-4" d="M705.27,1009.23a2.28,2.28,0,0,1-1-.22,2.24,2.24,0,0,1-1-3c.18-.37,17.82-37.53,17.48-70.35a2.25,2.25,0,0,1,4.49,0c.35,33.89-17.18,70.79-17.92,72.34A2.25,2.25,0,0,1,705.27,1009.23Z" transform="translate(-147.42 -109.22)"/><path class="cls-4" d="M765,1140.66H765c-46.64-1.28-93-36-95-37.47a2.25,2.25,0,0,1,2.71-3.58c.47.35,47.23,35.32,92.41,36.56a2.25,2.25,0,0,1-.06,4.49Z" transform="translate(-147.42 -109.22)"/><path class="cls-4" d="M766.31,1140.75a2.2,2.2,0,0,1-1.56-.64,2.23,2.23,0,0,1,0-3.17c.29-.3,29.64-31.1,31.43-89.37a2.21,2.21,0,0,1,2.31-2.18,2.26,2.26,0,0,1,2.18,2.31c-1.85,60.13-31.45,91.09-32.71,92.38A2.23,2.23,0,0,1,766.31,1140.75Z" transform="translate(-147.42 -109.22)"/><path class="cls-4" d="M828.17,1305.76a2.24,2.24,0,0,1-1.57-3.84c.35-.35,35.82-35.66,41.33-87.25a2.24,2.24,0,1,1,4.46.48c-5.69,53.24-42.28,89.61-42.65,90A2.24,2.24,0,0,1,828.17,1305.76Z" transform="translate(-147.42 -109.22)"/><path class="cls-4" d="M824.77,1306.56c-9.14,0-47.84-2.15-89.29-36.1a2.24,2.24,0,1,1,2.84-3.47c45.12,36.94,87.74,35.06,88.17,35a2.21,2.21,0,0,1,2.36,2.11,2.25,2.25,0,0,1-2.12,2.37C826.54,1306.53,825.87,1306.56,824.77,1306.56Z" transform="translate(-147.42 -109.22)"/><path class="cls-2" d="M1971.94,1148.34A80,80,0,0,0,1820.47,1097h0a85.61,85.61,0,0,1-48,51.49,101.75,101.75,0,0,0-57.19,61.34h0a95.6,95.6,0,0,1-59.75,59.81,115.81,115.81,0,1,0,147,146.81q1.65-4.86,2.84-9.75a119.46,119.46,0,0,1,57-75.48,102.12,102.12,0,0,0,51.6-88.6,67,67,0,0,1,28.39-54.67A79.61,79.61,0,0,0,1971.94,1148.34Z" transform="translate(-147.42 -109.22)"/><path class="cls-4" d="M1901.43,1126.91c-17.54,29.47-37,57.53-57.24,85.06-5.09,6.86-10.13,13.75-15.4,20.47s-10.34,13.6-15.76,20.2l-16.09,19.95-16.51,19.59c-22.29,25.88-45.14,51.32-69.23,75.57-11.81,12.36-24.24,24.1-36.52,36-6.07,6-12.49,11.67-18.79,17.44l-19,17.27a4,4,0,0,1-5.42-6l0,0,.09-.08,19-17c6.31-5.69,12.75-11.25,18.84-17.19,12.31-11.72,24.78-23.29,36.64-35.49,24.18-23.92,47.15-49,69.57-74.62l16.61-19.37,16.2-19.72c5.45-6.53,10.56-13.34,15.87-20s10.39-13.47,15.52-20.26c20.39-27.2,40.06-55.1,57.67-84.08l0-.07a2.24,2.24,0,0,1,3.84,2.31Z" transform="translate(-147.42 -109.22)"/><path class="cls-4" d="M1857.87,1189.31a2.27,2.27,0,0,1-1.85-1c-14-20.1-11.07-71.25-10.94-73.41a2.24,2.24,0,1,1,4.48.27c0,.51-3,51.75,10.15,70.57a2.24,2.24,0,0,1-1.84,3.53Z" transform="translate(-147.42 -109.22)"/><path class="cls-4" d="M1859.35,1189.81a2.25,2.25,0,0,1,0-4.49c.35,0,34.78-.9,59.14-13.58a2.25,2.25,0,0,1,2.08,4c-25.31,13.17-59.67,14.06-61.12,14.09Z" transform="translate(-147.42 -109.22)"/><path class="cls-4" d="M1783.67,1284.45a2.23,2.23,0,0,1-2-1.29c-16.8-35.49-8.42-83.52-8.05-85.54a2.25,2.25,0,0,1,4.42.79c-.09.48-8.49,48.66,7.68,82.83a2.23,2.23,0,0,1-1.06,3A2.21,2.21,0,0,1,1783.67,1284.45Z" transform="translate(-147.42 -109.22)"/><path class="cls-4" d="M1807.51,1288.27c-14.45,0-23.38-2.71-24.1-2.93a2.25,2.25,0,0,1,1.34-4.29c.34.11,34.42,10.33,78.57-10.38a2.24,2.24,0,1,1,1.91,4.06C1842.23,1285.52,1822.07,1288.27,1807.51,1288.27Z" transform="translate(-147.42 -109.22)"/><path class="cls-4" d="M1722.59,1399.93c-22.17,0-38.21-5.3-39.26-5.65a2.25,2.25,0,1,1,1.44-4.26c.4.14,40.17,13.23,80.75-2.18a2.25,2.25,0,1,1,1.6,4.2A125.42,125.42,0,0,1,1722.59,1399.93Z" transform="translate(-147.42 -109.22)"/><path class="cls-4" d="M1682.9,1393.52a2.22,2.22,0,0,1-2-1.13c-.76-1.32-18.57-32.9-7.7-82.25a2.24,2.24,0,1,1,4.38,1c-10.49,47.66,7,78.73,7.21,79a2.25,2.25,0,0,1-.82,3.07A2.3,2.3,0,0,1,1682.9,1393.52Z" transform="translate(-147.42 -109.22)"/><path class="cls-2" d="M1741.27,721.76A102.46,102.46,0,1,1,1887.71,865.1h0a109.72,109.72,0,0,0-31,84.7,130.34,130.34,0,0,1-37,100.9h0a122.51,122.51,0,0,0-33.72,103,148.39,148.39,0,1,1-252.94-82.83q4.59-4.69,9.5-8.9A153.1,153.1,0,0,0,1595.76,953a130.89,130.89,0,0,1,71.34-110.32,85.76,85.76,0,0,0,46-64.12A102,102,0,0,1,1741.27,721.76Z" transform="translate(-147.42 -109.22)"/><path class="cls-4" d="M1810.74,792.59c-23.08,36.9-43.57,75.55-62.81,114.67-4.78,9.81-9.64,19.57-14.15,29.5l-6.89,14.84-3.44,7.42-3.3,7.48-13.15,30-12.42,30.26c-16.11,40.52-31.38,81.39-44.58,122.94-7,20.65-13,41.62-19.1,62.51-3.2,10.42-5.76,21-8.55,31.54l-8.24,31.62,0,.15a5.33,5.33,0,1,1-10.32-2.69s0-.07,0-.1l8.91-31.63c3-10.53,5.79-21.12,9.21-31.53l9.78-31.36c3.12-10.49,6.92-20.77,10.39-31.15,13.88-41.53,29.82-82.33,46.6-122.74l12.89-30.17L1715,964.19l3.37-7.48,3.53-7.41,7-14.81c4.62-9.92,9.58-19.67,14.47-29.45s9.93-19.49,15-29.17,10.38-19.26,15.58-28.88c10.66-19.11,21.48-38.1,33.27-56.63a2,2,0,0,1,3.45,2.18Z" transform="translate(-147.42 -109.22)"/><path class="cls-4" d="M1768.8,877.17a42.47,42.47,0,0,1-6-.39,2.24,2.24,0,1,1,.62-4.44c29.33,4.09,86.36-29.06,86.94-29.4a2.25,2.25,0,0,1,2.27,3.88C1850.41,848.13,1800.44,877.17,1768.8,877.17Z" transform="translate(-147.42 -109.22)"/><path class="cls-4" d="M1761.7,875.4a2.24,2.24,0,0,1-2-1.28c-.8-1.67-19.64-41.31-19.26-77.72a2.24,2.24,0,0,1,2.24-2.22h0a2.25,2.25,0,0,1,2.22,2.27c-.37,35.34,18.63,75.33,18.82,75.73a2.24,2.24,0,0,1-1.06,3A2.1,2.1,0,0,1,1761.7,875.4Z" transform="translate(-147.42 -109.22)"/><path class="cls-4" d="M1697.43,1016.74a2.25,2.25,0,0,1-.06-4.49c48.64-1.33,99-39,99.47-39.35a2.25,2.25,0,1,1,2.71,3.58c-2.1,1.59-52,38.89-102.06,40.26Z" transform="translate(-147.42 -109.22)"/><path class="cls-4" d="M1696.06,1016.84a2.25,2.25,0,0,1-1.61-.67c-1.35-1.39-33.14-34.64-35.12-99.23a2.25,2.25,0,1,1,4.49-.13c1.92,62.73,33.53,95.89,33.85,96.22a2.25,2.25,0,0,1,0,3.17A2.23,2.23,0,0,1,1696.06,1016.84Z" transform="translate(-147.42 -109.22)"/><path class="cls-4" d="M1629.54,1194.3a2.23,2.23,0,0,1-1.57-.64c-.4-.39-39.71-39.46-45.82-96.66a2.24,2.24,0,1,1,4.46-.48c5.94,55.62,44.11,93.55,44.5,93.93a2.25,2.25,0,0,1-1.57,3.85Z" transform="translate(-147.42 -109.22)"/><path class="cls-4" d="M1633.2,1195.16c-1.18,0-1.9,0-2.11-.05a2.24,2.24,0,0,1-2.12-2.36,2.32,2.32,0,0,1,2.36-2.12c.46,0,46.45,2,94.94-37.73a2.25,2.25,0,1,1,2.85,3.47C1684.58,1192.84,1643,1195.16,1633.2,1195.16Z" transform="translate(-147.42 -109.22)"/><path class="cls-5" d="M853.25,223.48l751.15,8.27c41.52.46,74.09,36.28,74.06,81.29l-.67,1113.47c0,31.15-25.24,57-55.66,57.12l-805.3,3.56c-28.42.12-51.73-23.64-51.73-52.82V318.45C765.1,265.58,804.56,222.94,853.25,223.48Z" transform="translate(-147.42 -109.22)"/><path class="cls-6" d="M1541.77,330.21H910.38a46.57,46.57,0,0,0-47.06,46.7v919a46.57,46.57,0,0,0,47.06,46.7h631.39c26.48,0,48.83-20.91,48.83-46.7v-919C1590.6,351.12,1568.25,330.21,1541.77,330.21Z" transform="translate(-147.42 -109.22)"/><g class="cls-7"><path class="cls-8" d="M1187.49,1113.27v-40.44c-42.16-1.69-83.86-11.64-113.48-24.6a23.39,23.39,0,0,1-12.93-27.64l10.27-37.67a23.59,23.59,0,0,1,32-15.44c29.38,12.32,65.66,22.07,104.78,22.07,40.61,0,70.89-13.77,70.89-42,0-25.47-23.4-40.61-79.84-55.75-80.53-22-138.34-57.13-138.34-128,0-64,46.8-112.88,128-126V597.38a23.56,23.56,0,0,1,23.56-23.56h23.77a23.56,23.56,0,0,1,23.56,23.56V633.7c39,1.56,67.41,8.23,90,16.15a23.44,23.44,0,0,1,14.65,28.31L1354.91,713a23.49,23.49,0,0,1-31,15.87,245.3,245.3,0,0,0-88.22-16c-48.18,0-61.94,20-61.94,37.86,0,22,28.9,37.17,91.54,56.44,89.47,26.84,126.64,64,126.64,130.77,0,61.26-45.42,116.32-133.52,130.09v45.26a23.57,23.57,0,0,1-23.57,23.57h-23.76A23.57,23.57,0,0,1,1187.49,1113.27Z" transform="translate(-147.42 -109.22)"/></g><path class="cls-9" d="M625.66,274.37v-.51h-.62a188,188,0,0,0-241.29,0l-.63,0v.51a188,188,0,0,0-67.14,144c0,103.9,84.53,188.43,188.42,188.43s188.42-84.53,188.42-188.43A188.06,188.06,0,0,0,625.66,274.37Zm47.15,206.22-40.17-.35a239.44,239.44,0,0,0,8.19-58.7l41.79-.26,1.22,0A178.37,178.37,0,0,1,672.81,480.59ZM325,421.32l33.41.25A251,251,0,0,0,360.48,450a231.06,231.06,0,0,0,6.15,30.35l-26.24.17-4.34.16A178.63,178.63,0,0,1,325,421.32Zm12.82-69.55.62.62,29.28.24c-.28.91-.57,1.81-.83,2.72a230.32,230.32,0,0,0-6.39,31.18c-1.08,8.12-1.74,16.45-2,24.85l-32.34.19-1,0A178.36,178.36,0,0,1,337.82,351.77ZM620.3,480.17,556.78,480c1.89-18.35,2.88-37.61,3-58.08l33.74-.06,35.22-.22a227.66,227.66,0,0,1-7.79,56.3C620.75,478.68,620.51,479.42,620.3,480.17Zm.7-121.61a227.23,227.23,0,0,1,7.69,52.68l-69-.19A537.11,537.11,0,0,0,555.94,353l30.47-.06,32.86-.23C619.86,354.63,620.45,356.58,621,358.56ZM532.52,545.78H477.27a76.82,76.82,0,0,1-3.13-9.88c-1.82-7.33-3.4-14.14-4.85-22.46-1.32-7.6-2.45-15-3.41-23l38.53.31,39.5,0q-1.41,11.72-3.29,22.69c-1.45,8.37-3,14.41-4.8,21.7A77.47,77.47,0,0,1,532.52,545.78Zm-28.13-66-39.7.08c-.42-4.27-.8-8.6-1.13-13.06-1.08-14.57-1.62-29.68-1.65-44.94l42.5.11,43.64-.09c-.08,15-.65,29.87-1.74,44.17-.35,4.75-.77,9.34-1.21,13.86ZM464.66,353l39.75.11,40-.08c.66,5.67,1.26,11.44,1.76,17.47,1.09,13.18,1.69,26.79,1.83,40.55l-43.62-.12-42.49.07c.1-14.4.53-27.52,1.32-39.88C463.62,364.84,464.11,358.85,464.66,353Zm61.2-79.82-21.47-.1-23.9,0c.86-2.27,1.72-4.41,2.61-6.42a77.25,77.25,0,0,1,5.25-10,33.72,33.72,0,0,1,6.69-8,14.77,14.77,0,0,1,3.8-2.37,9.36,9.36,0,0,1,3.55-.73h.27a10,10,0,0,1,3.85,1,17.51,17.51,0,0,1,3.92,2.53,38.31,38.31,0,0,1,7,8A94,94,0,0,1,525.86,273.15Zm-49,11,27.6.06,25.6-.08c1.69,4.93,3.28,10.16,4.8,15.9,1.94,7.36,3.63,14.94,5.17,23.18,1.15,6.16,2.15,12.47,3,18.93L504.39,342,465.8,342c.72-6.29,1.51-12.45,2.44-18.46,1.3-8.39,2.74-16,4.39-23.38C473.94,294.38,475.33,289.07,476.82,284.1Zm60.5-10.89a111.59,111.59,0,0,0-11.45-22c-.82-1.18-1.64-2.26-2.46-3.29,1.74.43,3.49.86,5.22,1.39a109.65,109.65,0,0,1,26.64,12.37,124.2,124.2,0,0,1,15.37,11.73Zm-57.65-22.15a87.87,87.87,0,0,0-6.1,11.29c-1.5,3.27-2.92,6.82-4.34,10.76h-2.56c-6.84,0-13.68,0-20.5.08l-17.2.13a123.57,123.57,0,0,1,15.21-11.63,109.94,109.94,0,0,1,26.64-12.4,100.74,100.74,0,0,1,12.25-2.88A56.52,56.52,0,0,0,479.67,251.06ZM469.11,559.8c.5,2.8,1,2.79,1.52,4.17a109.57,109.57,0,0,0,11.24,22.71c.88,1.29,1.75,2.44,2.63,3.55a100.81,100.81,0,0,1-13.63-3.17,109.6,109.6,0,0,1-26.61-12.27,139.3,139.3,0,0,1-19-15Zm34.42,31.53a9.42,9.42,0,0,1-2.13-.58,15,15,0,0,1-3.77-2.32,34.56,34.56,0,0,1-6.8-7.84,98.17,98.17,0,0,1-9.91-20.48c-.05-.13-.09-.31-.14-.31H529a103.3,103.3,0,0,1-9.66,20.27,36.74,36.74,0,0,1-6.72,8,16.49,16.49,0,0,1-3.77,2.48,11.18,11.18,0,0,1-1.78.63C505.9,591.28,504.71,591.28,503.53,591.33Zm24.87-5.39a112.94,112.94,0,0,0,11.06-22.71c.42-1.14.83-3.43,1.24-3.43h33.58a141.34,141.34,0,0,1-19.06,15,110,110,0,0,1-26.65,12.3c-.39.12-.79.18-1.19.29C527.72,586.93,528.06,586.45,528.4,585.94Zm26.08-243.82q-1.56-10.68-3.58-21.08c-1.69-8.52-3.53-16.34-5.62-23.91-1.28-4.63-2.6-9-4-13.08l21.34-.06,18.61-.15a157.21,157.21,0,0,1,15.49,20,185.93,185.93,0,0,1,19.07,38.5ZM446.16,284q9.75.08,19.51.07c-1.26,4.29-2.46,8.81-3.62,13.67-1.78,7.55-3.35,15.42-4.79,24.06-1.09,6.58-2,13.34-2.88,20.26l-32,.06-38.62.25a185.71,185.71,0,0,1,19-38.49,158.25,158.25,0,0,1,15.56-20.09ZM381.4,352.74l71.76.2c-.58,5.64-1.11,11.38-1.55,17.36-.59,7.95-1,16.15-1.35,24.35-.17,5-.34,10.54-.42,16.34l-34.57.06-44.33.26c.24-7.81.85-15.57,1.83-23.15a221.69,221.69,0,0,1,5.84-29.55c.54-2,1.12-3.93,1.72-5.88Zm-2.76,125.15a224.25,224.25,0,0,1-5.85-29.55,239.08,239.08,0,0,1-1.92-26.67l79,.2c.14,15.57.81,31,2,45.9.34,4.13.72,8.17,1.13,12.15l-30.61.05-43.05.28C379.11,479.46,378.86,478.68,378.64,477.89Zm75.62,12.9c1.09,8.75,2.35,17.2,3.85,25.45,1.57,8.6,3.27,14.85,5.2,22.4.78,3.05,1.58,7.14,2.41,7.14H415.17c-4.36-2.8-8.5-9-12.3-14.79a181.16,181.16,0,0,1-20.29-41.19Zm89.83,55c.89-2.8,1.76-4.57,2.6-7.88,1.91-7.57,3.6-15.12,5.15-23.71,1.43-8.06,2.66-16.06,3.7-24.47h30.87L617,490a177.54,177.54,0,0,1-20.36,40.76c-3.8,5.8-7.93,12.19-12.28,15Zm96.66-134.49a238.81,238.81,0,0,0-8.38-55.9c-.27-.94-.57-1.86-.84-2.79l36.85-.25,2.84-.07a178.1,178.1,0,0,1,12.52,59.36ZM602.34,273.54l-15.88-.08c-.2-.21-.39-.43-.59-.63a142.28,142.28,0,0,0-25-20.14,122.66,122.66,0,0,0-19.38-9.85,178.57,178.57,0,0,1,68.78,30.8ZM438.5,252.64a141.46,141.46,0,0,0-25,20.12c-.23.22-.44.47-.66.69l-6.13.05c-2.71,0-5.41.06-8.12.09a179.64,179.64,0,0,1,45.34-24.12C442.11,250.49,440.29,251.52,438.5,252.64ZM393.85,559.8h15.62c1.31,2.8,2.61,2.75,4,4.1a141.79,141.79,0,0,0,25,20.12c2.14,1.34,4.32,2.58,6.51,3.78a179.31,179.31,0,0,1-51.18-28.08S393.82,559.8,393.85,559.8ZM561,583.92a142.38,142.38,0,0,0,25-20.08c1.32-1.33,2.6-1.24,3.89-4h25.23a179.75,179.75,0,0,1-74.72,34.62A123.78,123.78,0,0,0,561,583.92Zm106.1-241.23-38.88-.34A198.24,198.24,0,0,0,606,297.6a172.5,172.5,0,0,0-10.35-13.88l5.77-.05c6.48-.07,13-.14,19.36-.25l1.61,0A180.38,180.38,0,0,1,667.09,342.69ZM386.32,283.46l1.59,0c5.25.09,10.49.13,15.74.19a169.91,169.91,0,0,0-10.36,13.86A198.33,198.33,0,0,0,371,342.45l-29.24.19A180.42,180.42,0,0,1,386.32,283.46ZM340,490.26l29.78.24c5.83,17.63,13.69,32.33,23.47,46.93,2.31,3.44,4.75,5.55,7.24,8.35h-6.6c-2.93,0-5.31,4-5.31,6.93a14.71,14.71,0,0,0,.15,2C367.84,537.07,351.06,515.59,340,490.26Zm287.42,57.19c-.23,0-.46-1.67-.7-1.67H598.84c2.52-2.8,5-4.95,7.28-8.42a194,194,0,0,0,23.41-47.69l38.85.13.53-.61A177.86,177.86,0,0,1,627.38,547.45Z" transform="translate(-147.42 -109.22)"/><path class="cls-2" d="M570.53,686.79H163.19A15.77,15.77,0,0,1,147.42,671h0a15.77,15.77,0,0,1,15.77-15.76H570.53A15.77,15.77,0,0,1,586.29,671h0A15.77,15.77,0,0,1,570.53,686.79Z" transform="translate(-147.42 -109.22)"/><path class="cls-2" d="M619.47,748.53H212.13a15.76,15.76,0,0,1-15.76-15.76h0A15.75,15.75,0,0,1,212.13,717H619.47a15.75,15.75,0,0,1,15.76,15.76h0A15.76,15.76,0,0,1,619.47,748.53Z" transform="translate(-147.42 -109.22)"/><path class="cls-2" d="M503.64,872H212.13a15.75,15.75,0,0,1-15.76-15.76h0a15.76,15.76,0,0,1,15.76-15.76H503.64a15.77,15.77,0,0,1,15.76,15.76h0A15.76,15.76,0,0,1,503.64,872Z" transform="translate(-147.42 -109.22)"/><path class="cls-2" d="M665.15,810.27H257.81a15.76,15.76,0,0,1-15.76-15.76h0a15.77,15.77,0,0,1,15.76-15.76H665.15a15.76,15.76,0,0,1,15.76,15.76h0A15.75,15.75,0,0,1,665.15,810.27Z" transform="translate(-147.42 -109.22)"/><circle class="cls-10" cx="1480.52" cy="375.29" r="59.78" transform="translate(-188.19 401.99) rotate(-19.33)"/><circle class="cls-11" cx="1480.52" cy="375.29" r="57.79" transform="translate(-177.2 38.49) rotate(-5.65)"/><path class="cls-12" d="M1432.86,353.53a2.27,2.27,0,0,1-1-.24,2.24,2.24,0,0,1-1-3,55.7,55.7,0,0,1,59.68-29.67,2.25,2.25,0,1,1-.8,4.42,51.58,51.58,0,0,0-9.22-.83,50.88,50.88,0,0,0-45.65,28.11A2.26,2.26,0,0,1,1432.86,353.53Z" transform="translate(-147.42 -109.22)"/><circle class="cls-13" cx="1481.78" cy="376.55" r="48.91" transform="translate(627.43 1622.95) rotate(-76.72)"/><path class="cls-14" d="M1501.46,390.54a1.35,1.35,0,0,0-1.15-.45H1479a1.64,1.64,0,0,1-1.39-2.09l11.86-37a1.51,1.51,0,0,0-.21-1.32,1.48,1.48,0,0,0-1.18-.61l-9,0a1.47,1.47,0,0,0-1.4,1l-15.47,47.77a.87.87,0,0,0,.21,1c.27.37.71.27,1.18.27h35c.67,0,1.26-.13,1.42-.78l1.74-6.72A1,1,0,0,0,1501.46,390.54Z" transform="translate(-147.42 -109.22)"/><path class="cls-15" d="M1489.1,368.53l-.32-.43a1.47,1.47,0,0,0-1.89-.41,19.89,19.89,0,0,1-10,2.46c-6-.14-11.78,3.51-14.25,5.31a1.45,1.45,0,0,0-.59,1,1.52,1.52,0,0,0,.34,1.12l.35.4a1.45,1.45,0,0,0,2,.24c2.1-1.53,7-4.63,11.82-4.63h.83a23.51,23.51,0,0,0,11.3-2.93,1.48,1.48,0,0,0,.72-1A1.46,1.46,0,0,0,1489.1,368.53Z" transform="translate(-147.42 -109.22)"/><circle class="cls-16" cx="1650.68" cy="304.4" r="104.07" transform="translate(972.85 1787.68) rotate(-82.03)"/><circle class="cls-17" cx="1650.68" cy="304.4" r="100.61" transform="translate(827.75 1731.76) rotate(-76.72)"/><path class="cls-12" d="M1567.72,264.85a2.3,2.3,0,0,1-1-.24,2.24,2.24,0,0,1-1-3,95.23,95.23,0,0,1,102.12-50.76,2.24,2.24,0,0,1-.81,4.41,91.89,91.89,0,0,0-16.35-1.47,90.25,90.25,0,0,0-81,49.85A2.26,2.26,0,0,1,1567.72,264.85Z" transform="translate(-147.42 -109.22)"/><circle class="cls-13" cx="1652.87" cy="306.59" r="85.15" transform="translate(982.18 1794.92) rotate(-82.37)"/><path class="cls-18" d="M1696.19,275.68a24,24,0,1,1-24-24A24,24,0,0,1,1696.19,275.68Z" transform="translate(-147.42 -109.22)"/><path class="cls-19" d="M1641.3,306.68a24,24,0,1,1-24-24A24,24,0,0,1,1641.3,306.68Z" transform="translate(-147.42 -109.22)"/><circle class="cls-20" cx="1523.34" cy="229.1" r="23.97"/><path class="cls-21" d="M1656.3,288.31s-2.29,20.77-24.7,19.56l-1.85,8.86s22.66-9.89,25.9,21.29c7.7-4.79,14.16-13.7,14.16-13.7s-21.9-15.34-.11-27.66C1664,295.33,1656.3,288.31,1656.3,288.31Z" transform="translate(-147.42 -109.22)"/><circle class="cls-22" cx="1722.45" cy="536.84" r="107.08" transform="translate(421.52 1814.86) rotate(-67.57)"/><circle class="cls-23" cx="1722.45" cy="536.84" r="103.52" transform="translate(-22.53 1265.97) rotate(-45)"/><path class="cls-12" d="M1637.09,496.08a2.25,2.25,0,0,1-2-3.26,98,98,0,0,1,105-52.2,2.24,2.24,0,1,1-.8,4.41,94.67,94.67,0,0,0-16.84-1.51,92.94,92.94,0,0,0-83.36,51.32A2.22,2.22,0,0,1,1637.09,496.08Z" transform="translate(-147.42 -109.22)"/><circle class="cls-13" cx="1724.71" cy="539.09" r="87.62" transform="translate(543.63 1912.03) rotate(-72.47)"/><path class="cls-24" d="M1768,546.22c-4.45-4.13-10.56-6.62-18.08-7.47a.07.07,0,0,1-.06-.07v-.14a.07.07,0,0,1,.05-.07c6-1.5,9.29-4.17,13.1-8a18.58,18.58,0,0,0,5.88-13.43c0-7.06-3.29-12.53-9.57-16.41-5.31-3.28-11.4-5.17-20.19-5.68a1.11,1.11,0,0,1-1-1.11V476.34a1.11,1.11,0,0,0-1.11-1.11h-8a1.11,1.11,0,0,0-1.11,1.11v17.71a1.11,1.11,0,0,1-1.11,1.11h-9.25a1.11,1.11,0,0,1-1.11-1.11V476.34a1.11,1.11,0,0,0-1.11-1.11h-8a1.11,1.11,0,0,0-1.11,1.11v17.71a1.11,1.11,0,0,1-1.11,1.11h-23.44a1.11,1.11,0,0,0-1.11,1.11v9a1.11,1.11,0,0,0,1.11,1.11h13.18a1.11,1.11,0,0,1,1.11,1.11v69a1.11,1.11,0,0,1-1.11,1.11h-13.18a1.11,1.11,0,0,0-1.11,1.11v10.16a1.11,1.11,0,0,0,1.11,1.11H1705a1.1,1.1,0,0,1,1.11,1.1v18.32a1.11,1.11,0,0,0,1.11,1.11h8a1.11,1.11,0,0,0,1.11-1.11V591.06a1.1,1.1,0,0,1,1.11-1.1h9.25a1.11,1.11,0,0,1,1.11,1.1v18.32a1.11,1.11,0,0,0,1.11,1.11h8a1.11,1.11,0,0,0,1.11-1.11V590.74a1.1,1.1,0,0,1,1.06-1.11c10.39-.41,19-2.93,25.29-7.58,6.87-5.1,10.27-12,10.27-20.68A20,20,0,0,0,1768,546.22Zm-39.28-35.36c11.49,0,17.24,3.33,17.24,10.3a10.5,10.5,0,0,1-4.2,8.83q-4.2,3.21-11.51,3.21h-12.79a1.11,1.11,0,0,1-1.11-1.11V512a1.1,1.1,0,0,1,1.11-1.11ZM1745.48,571c-3.09,2.29-7.36,3.58-12.82,3.58h-15.2a1.11,1.11,0,0,1-1.11-1.11V550.31a1.11,1.11,0,0,1,1.11-1.11h15.35c5.45,0,9.7.95,12.75,3.11a11,11,0,0,1,4.56,9.27A11.07,11.07,0,0,1,1745.48,571Z" transform="translate(-147.42 -109.22)"/><circle class="cls-25" cx="1859.82" cy="390.97" r="78.46" transform="translate(948.86 2022.09) rotate(-78.18)"/><circle class="cls-26" cx="1859.82" cy="390.97" r="75.85" transform="translate(120.85 1320.38) rotate(-45)"/><path class="cls-12" d="M1797.28,361.71a2.16,2.16,0,0,1-1-.25,2.23,2.23,0,0,1-1-3,71.93,71.93,0,0,1,64.54-39.74,72.69,72.69,0,0,1,13,1.17,2.25,2.25,0,0,1-.81,4.42,68.26,68.26,0,0,0-12.23-1.1,67.5,67.5,0,0,0-60.54,37.27A2.24,2.24,0,0,1,1797.28,361.71Z" transform="translate(-147.42 -109.22)"/><circle class="cls-13" cx="1861.48" cy="392.62" r="64.2" transform="translate(477.81 1729.41) rotate(-61.38)"/><path class="cls-27" d="M1861.48,349.34a42.36,42.36,0,0,0-42.37,42.36,43.16,43.16,0,0,0,1.15,9.84,2.57,2.57,0,0,0,2.34,2h9c.53,0,2.61-.77,2.61-1.29V370.54c0-.4-.59-.76-.23-.91s.38-.07.66.21l25.51,25.72a1.65,1.65,0,0,0,2.4,0l23.54-23.6a1.26,1.26,0,0,1,1.23-.21,1.15,1.15,0,0,1,.76.91v28.78c0,1,.43,2.12,1.41,2.12h11.31a1.77,1.77,0,0,0,1.73-1.39,44.65,44.65,0,0,0,1.31-10.29A42.51,42.51,0,0,0,1861.48,349.34Z" transform="translate(-147.42 -109.22)"/><path class="cls-28" d="M1897,410.3h-13.59c-1,0-2.06-1.8-2.06-2.78V387.34a.84.84,0,0,0-1.46-.7l-18,18.08a1,1,0,0,1-1.37,0l-20.18-20.2a.92.92,0,0,0-1-.21.94.94,0,0,0-.57.91v21.67c0,1.33-1.15,3.41-2.48,3.41h-9.29c-.86,0-1.66,0-2.09.7a2,2,0,0,0,0,2.16,42.62,42.62,0,0,0,36.63,21.53c16,0,29.83-9.51,37-21.72a1.77,1.77,0,0,0-1.53-2.67Z" transform="translate(-147.42 -109.22)"/><path class="cls-29" d="M299.28,916.64s-74.48,41.25-80.64,111.08-.51,359.63,148.83,431,347,54.89,422.68,47.09,117.62-59.22,127-94.63,24.51-167.3-55.09-209.85-163.2-107.72-246.74-171.19S388.6,863,299.28,916.64Z" transform="translate(-147.42 -109.22)"/><path class="cls-30" d="M838.58,1225.37s-20.1,1.06-22.57,42.41c0,0,46.61,41.78,109.57,51.73,4.73.75-6.6-32.27-8.31-36.74C909.16,1261.5,883.63,1247.79,838.58,1225.37Z" transform="translate(-147.42 -109.22)"/><path class="cls-31" d="M612.21,1176.74h20.18a51.56,51.56,0,0,0,37-15.66c33.42-34.48,116.93-115.64,182.94-138a22.3,22.3,0,0,1,27.27,11.8c13.78,29.4,33.12,97.82-12.67,201.38-5.07,11.47-19.46,16.35-29.89,9.38a16.88,16.88,0,0,1-6.43-7.85l5-121s-111,97.12-130.35,115.87S587.9,1239.93,612.21,1176.74Z" transform="translate(-147.42 -109.22)"/><path class="cls-32" d="M1022.29,1478.62c-17.78-15.58-46.1-33.06-87-38.07L921.48,1449a150.61,150.61,0,0,0,24.92,26.74c14.81,8.6,37.67,20.25,56.62,22.77C1021.44,1501,1024.16,1489.84,1022.29,1478.62Z" transform="translate(-147.42 -109.22)"/><path class="cls-33" d="M917.27,1282.77c-10.95,3.55-15.76,19.06-43.55,8.8a245.45,245.45,0,0,1-57.15-30.11c-.23,2-.42,4.09-.56,6.32,0,0,49.15,46.75,112.11,56.69a6.26,6.26,0,0,0,6.77-8.44A158.42,158.42,0,0,0,917.27,1282.77Z" transform="translate(-147.42 -109.22)"/><path class="cls-34" d="M1035.68,1491.92a146.48,146.48,0,0,0-13.39-13.3c1.87,11.22-.85,22.36-19.27,19.9-18.95-2.52-41.81-14.17-56.62-22.77,18.56,15.83,46.79,32.62,82.42,31.64A9.35,9.35,0,0,0,1035.68,1491.92Z" transform="translate(-147.42 -109.22)"/><path class="cls-35" d="M627.55,1046.84s32.63,94,96.21,22.44l6-2.68h0l45.57-31.15-5.07,18a33.72,33.72,0,0,1-19.63,22l-6,2.47c-11.42,23.75-35.9,59.73-73.6,66.56-56.58,10.24-85.6-66.2-85.6-66.2Z" transform="translate(-147.42 -109.22)"/><path class="cls-36" d="M613.76,1207.43l198.63,2.15s113.44,93.85,134,237c0,0,3.42,10.53-17.09,12.33,0,0-68.58-44.79-113.3-124-54.83-97.1-163.45-53.39-163.45-53.39-35.7-25.73-86.13-31-124.13-39.55Z" transform="translate(-147.42 -109.22)"/><path class="cls-37" d="M629.91,1205.68s-24.32-66.1-29.54-130.33c0,0,17.79-15.28,28.9-21.88a8,8,0,0,0,3.14-10.42c-8.17-16.94-57.61-83.44-61.31-84.36-20.13-5-102.68-44.27-160.82,35.25-24.95,34.13,5,139.2,118.15,248l23.36,4.47Z" transform="translate(-147.42 -109.22)"/><path class="cls-38" d="M496.8,902.58,482,951.89a5.41,5.41,0,0,0,2.1,6c7.12,4.88,25.72,14.57,51.24,5.15a8.06,8.06,0,0,0,5.17-6.9l3.5-42.95Z" transform="translate(-147.42 -109.22)"/><path class="cls-39" d="M583.36,862.66s-7.27,51.1-26.9,66.82-57.89,3.88-70.81-34.65L511.4,829Z" transform="translate(-147.42 -109.22)"/><path class="cls-40" d="M508.5,871.59a2.54,2.54,0,0,0,3.29-2c.71-4.72,2.47-14,6.06-20.41,0,0-1.88-6.71,16.94,3.42s47.09,25,63.73,16.15c16.22-8.64,32.66-52.11-10.22-44.06a2.53,2.53,0,0,1-3-2.65c.52-7.14-.18-23.58-16.83-28.86-15.58-4.94-24.11,2.1-27.62,6.34a2.52,2.52,0,0,1-3.94-.06c-4.67-6.1-17.34-19.06-36-10.84-15.36,6.77-17.75,16.24-17.5,22.13a2.52,2.52,0,0,1-3.59,2.41c-4.71-2.17-12.28-3.29-19.53,5.79-10,12.56,4.3,23.46,8.6,26.31a2.56,2.56,0,0,1,1.15,2.09c0,6.53,1.05,35,15.33,51.1a2.56,2.56,0,0,0,4.25-.74l11-26.19a2.54,2.54,0,0,1,3.12-1.44Z" transform="translate(-147.42 -109.22)"/><path class="cls-41" d="M508.73,876.91s-6.72-27.35-16.91-18.47,2.65,28.42,14.34,32.14Z" transform="translate(-147.42 -109.22)"/><path class="cls-42" d="M600.37,1077.24h0a1.89,1.89,0,0,1-1.88-1.89c.1-29.37-11.24-68.38-11.36-68.77a1.89,1.89,0,0,1,3.62-1.06c.11.4,11.61,39.93,11.51,69.84A1.89,1.89,0,0,1,600.37,1077.24Z" transform="translate(-147.42 -109.22)"/><path class="cls-43" d="M525,1101.51a1.9,1.9,0,0,1-1.73-1.12c-.83-1.87-20.4-46.21-24-75a1.88,1.88,0,0,1,1.63-2.11,1.86,1.86,0,0,1,2.1,1.64c3.55,28.23,23.53,73.48,23.73,73.93a1.88,1.88,0,0,1-1.71,2.65Z" transform="translate(-147.42 -109.22)"/><path class="cls-44" d="M467.8,1149l-1.21-.93c-38.71-29.75-52.26-88.49-52.39-89.08a1.88,1.88,0,1,1,3.67-.82c.13.57,13.11,56.79,49.82,86l5.59-4.76a1.88,1.88,0,0,1,2.44,2.87Z" transform="translate(-147.42 -109.22)"/><path class="cls-45" d="M798.11,1011.46l3.2,4.38a4.66,4.66,0,0,1-1.14,6.6l-71.79,49a4.67,4.67,0,0,1-6-.66h0a4.67,4.67,0,0,1,.54-6.87l68.6-53.42A4.66,4.66,0,0,1,798.11,1011.46Z" transform="translate(-147.42 -109.22)"/><path class="cls-46" d="M745.75,1156.85c3.54.28,6.31,3.79,6.28,8-.08,14-2.54,43-21.06,48.65-23.13,7-49.4-4.13-43.2-51.81.69-5.29,4.58-9.15,9.06-8.79Z" transform="translate(-147.42 -109.22)"/><path class="cls-47" d="M698.88,1197.44s-120.18,0-181.23-94.85l-35.87,32.79s71.79,123,206.94,76.9c0,0,31.21,6.44,48.8,1.56,9.88-2.74,15.24-11.57,18-18.79a5.25,5.25,0,0,0-6.64-6.81C736.47,1192.53,714.36,1199,698.88,1197.44Z" transform="translate(-147.42 -109.22)"/><path class="cls-48" d="M692.63,1168s-7.29-19.67-19.79-5.41,7.81,25.2,19.79,26.76v-5.18s-14-6.27-12.2-14.61,12.2,2.09,12.2,2.09Z" transform="translate(-147.42 -109.22)"/><path class="cls-49" d="M738.48,1074a31.58,31.58,0,0,0-11.62,6.3,19.66,19.66,0,0,0-6.48,11,14.94,14.94,0,0,0,2.79,12.24c2.68,3.54,6.56,6.2,10.24,9.15s7.18,6.64,8.8,11.34a11.69,11.69,0,0,1,.13,7.35,12.34,12.34,0,0,1-4.35,5.83c-3.83,3-8.48,4.28-12.57,6.42a21.24,21.24,0,0,0-5.57,4.1,9.65,9.65,0,0,0-2.76,6.18.09.09,0,0,1-.1.1.11.11,0,0,1-.09-.1,9.94,9.94,0,0,1,2.65-6.46,21.66,21.66,0,0,1,5.56-4.38c4.13-2.31,8.67-3.76,12.21-6.71a11.11,11.11,0,0,0,3.77-5.38,10.27,10.27,0,0,0-.33-6.45c-1.59-4.19-4.91-7.57-8.57-10.28s-7.77-5.35-10.93-9.22a17.62,17.62,0,0,1-3.71-14.22,22.77,22.77,0,0,1,7.06-13,35,35,0,0,1,12.69-7.43,1.88,1.88,0,1,1,1.23,3.55Z" transform="translate(-147.42 -109.22)"/><path class="cls-50" d="M714.06,1107.43c1.4,3.54,5.67,6,8.34,10.43a9.47,9.47,0,0,1,1.2,7.83,11.85,11.85,0,0,1-4.92,5.89c-4.08,2.67-8.65,3.84-10.81,7.32-2.1,3.26-.6,8.54,3,10.27a.92.92,0,0,1-.77,1.68,9.59,9.59,0,0,1-4.28-13.13c2.77-4.62,7.91-6,11.21-8.44a9,9,0,0,0,3.62-4.49,6.33,6.33,0,0,0-1.09-5.22c-2.05-3.46-6.53-5.65-9-10.61a1.89,1.89,0,0,1,3.37-1.69Z" transform="translate(-147.42 -109.22)"/><rect class="cls-51" x="1857.54" y="1165.16" width="17.37" height="187.89"/><path class="cls-52" d="M1792.76,1345.36h146.93a2.62,2.62,0,0,1,2.62,2.62v8.69a0,0,0,0,1,0,0H1790.14a0,0,0,0,1,0,0V1348A2.62,2.62,0,0,1,1792.76,1345.36Z"/><rect class="cls-53" x="1773.57" y="1123.06" width="191.33" height="54.26" rx="18.68"/><path class="cls-54" d="M1885.38,1149.1s-25.81,4-54.84,23.4a14.47,14.47,0,0,0-6.39,13.83c3.48,27.53,17.77,116.65,64.89,203.68a21.94,21.94,0,0,1,2.11,15l-8.19,38.1-15.18,14.24h39.11l26-70.47-11.13-3.52a21.06,21.06,0,0,1-14.71-19.73l-1.31-75.59c1.12-33.67-20.65-56.91-20.65-56.91l62.46-3Z" transform="translate(-147.42 -109.22)"/><path class="cls-55" d="M1852.51,1464.26c-3.57,4.66,38.33,10.81,59.5.62,0,0,29.34-51.05,29.34-77.34,0,0-2.33-5.36-19.56-4.14,0,0-9.85,60.44-20.26,67.21s-29.1.69-29.1.69S1857.76,1457.38,1852.51,1464.26Z" transform="translate(-147.42 -109.22)"/><path class="cls-56" d="M1939.67,1232.28c-.33-.58-67.24-8-67.24-8s2.19,20.35-4.65,48.35-105.09,149.35-105.09,149.35l10.3,32.65c-31.85,11.1-63.18,12.87-94,5.66l63.84-38.31s59.74-203.6,96.34-239.92l67.07-23.21Z" transform="translate(-147.42 -109.22)"/><path class="cls-57" d="M2089.73,1113.81s38.56,57.34,41.72,83.5-10.56,36.78-51,38.53-148.44,1.73-148.44,1.73l-92.16-78.77s67.17-24,84.63-30.74S2089.73,1113.81,2089.73,1113.81Z" transform="translate(-147.42 -109.22)"/><path class="cls-58" d="M1769.1,1443.59s11.09,10.74,3.6,22.69c0,0-87.85,15.57-111.71,8.51,0,0,5-11.31,31.82-24.18l-2,1.53a3.21,3.21,0,0,0,2.12,5.75C1710.64,1456.88,1747.27,1453.64,1769.1,1443.59Z" transform="translate(-147.42 -109.22)"/><path class="cls-59" d="M1985.48,1106.22s-44.9-42.75-67-71.06a60.08,60.08,0,0,1-10.18-54.07c10.09-34,28-69.19,29.66-74.67,2.5-8.4,52.84-8,52.84-8s99.05,64.29,138,173.18l-43.71,13.61s-25.86-43.39-51.41-71c0,0,44.21,58.42,45.77,82.33Z" transform="translate(-147.42 -109.22)"/><path class="cls-60" d="M1931.88,859.48c.53,1.75,13.66,45.3,14.69,46.21s28.81,2.4,41.89-6.54l-22.18-46.45Z" transform="translate(-147.42 -109.22)"/><path class="cls-61" d="M1953.46,768s-23.72,10-39.84,44.29-4.09,50.1,11,52.27,37.75,1.84,61.68-20.3S1984.29,756.13,1953.46,768Z" transform="translate(-147.42 -109.22)"/><path class="cls-62" d="M1970.25,826s17.9-50.14-26.56-50.73l-10.46,7.31s-16.31-27.8,10.46-41.07,66.72-1.46,78.12,34.61,4.72,59.36-14.23,76.62-26.77-2.31-26.77-2.31,10.32-16.14,6.12-24.78S1973,827.4,1973,827.4Z" transform="translate(-147.42 -109.22)"/><path class="cls-63" d="M1975.24,831.55s9-25.83,21.12-15.54-9.81,23.86-18.38,28.25Z" transform="translate(-147.42 -109.22)"/><path class="cls-64" d="M1894,1109.39l33-31.79,45.63,19.28s45.42,7,71.41,0l26-7,58.74-18.29,9.23,26.08a15.68,15.68,0,0,1-5.74,18c-5.08,3.61-11,7.58-14.83,9.24-7.74,3.39-190.7-2.34-190.7-2.34Z" transform="translate(-147.42 -109.22)"/><path class="cls-65" d="M2018.32,781.73c-5.71-5.83-2-15.7,6.07-17,26.07-4.06,65.8.08,82.49,55.88,18.8,62.84,31,94.26,43.6,99.77,8.25,3.63,8.78,15.07.56,18.76-6.07,2.73-14.77,3.7-27.22,1C2027.78,919,2051.85,816,2018.32,781.73Z" transform="translate(-147.42 -109.22)"/><path class="cls-66" d="M2018.84,1124.38h-.44l-191.33-.21a8.57,8.57,0,1,1,0-17.13l191.33.21a8.57,8.57,0,0,1,.42,17.12Z" transform="translate(-147.42 -109.22)"/><path class="cls-67" d="M1655.07,950.66h159.34a30.37,30.37,0,0,1,27.47,17.42l73.66,156.2h-198a18.46,18.46,0,0,1-17.16-11.67l-57.12-144.54A12.72,12.72,0,0,1,1655.07,950.66Z" transform="translate(-147.42 -109.22)"/><path class="cls-3" d="M1767.33,1030.75c3.45,10.73.9,21.15-5.7,23.27s-14.75-4.85-18.2-15.58-.9-21.14,5.7-23.27S1763.88,1020,1767.33,1030.75Z" transform="translate(-147.42 -109.22)"/><path class="cls-68" d="M2286.26,1131.37a7.07,7.07,0,0,0-1.66-6.12,8.12,8.12,0,0,0-6.09-2.69H1480.09a9.25,9.25,0,0,0-7.66,3.93,8.06,8.06,0,0,0-.59,8.16l8.65,17.56a12.18,12.18,0,0,0,11,6.59H2273a9,9,0,0,0,9-7Z" transform="translate(-147.42 -109.22)"/><path class="cls-69" d="M1524.84,1501.33a6.82,6.82,0,0,1-2.77-.58,7.25,7.25,0,0,1-3.67-9.42l146.95-349.52a7,7,0,0,1,9.21-3.75,7.24,7.24,0,0,1,3.67,9.42l-147,349.52A7,7,0,0,1,1524.84,1501.33Z" transform="translate(-147.42 -109.22)"/><path class="cls-70" d="M1690.38,1501.33a7,7,0,0,1-6.44-4.33l-147-349.52a7.24,7.24,0,0,1,3.67-9.42,7,7,0,0,1,9.21,3.75l147,349.52a7.25,7.25,0,0,1-3.67,9.42A6.79,6.79,0,0,1,1690.38,1501.33Z" transform="translate(-147.42 -109.22)"/><path class="cls-71" d="M2103.51,1501.33a6.79,6.79,0,0,1-2.77-.58,7.24,7.24,0,0,1-3.67-9.42L2244,1141.81a7,7,0,0,1,9.21-3.75,7.24,7.24,0,0,1,3.66,9.42L2110,1497A7,7,0,0,1,2103.51,1501.33Z" transform="translate(-147.42 -109.22)"/><path class="cls-72" d="M2269.05,1501.33a7,7,0,0,1-6.44-4.33l-147-349.52a7.23,7.23,0,0,1,3.67-9.42,7,7,0,0,1,9.2,3.75l146.95,349.52a7.23,7.23,0,0,1-3.67,9.42A6.78,6.78,0,0,1,2269.05,1501.33Z" transform="translate(-147.42 -109.22)"/><path class="cls-73" d="M1835.88,185.64l9.18-.33a1.83,1.83,0,1,1,.13,3.65h0l-9.08.33H1836a1.83,1.83,0,1,1-.14-3.65Z" transform="translate(-147.42 -109.22)"/><path class="cls-73" d="M1854.21,185.13l9.16-.07a1.82,1.82,0,0,1,0,3.64h0l-9.12.08h0a1.83,1.83,0,0,1,0-3.65Z" transform="translate(-147.42 -109.22)"/><path class="cls-73" d="M1872.52,185.09l9.15.11a1.82,1.82,0,1,1-.05,3.63h0l-9.12-.11h0a1.82,1.82,0,1,1,0-3.63Z" transform="translate(-147.42 -109.22)"/><path class="cls-73" d="M1890.82,185.41l9.15.29a1.81,1.81,0,0,1-.12,3.61h0l-9.12-.29h0a1.81,1.81,0,1,1,.11-3.61Z" transform="translate(-147.42 -109.22)"/><path class="cls-73" d="M1909.11,186.07l9.14.46a1.8,1.8,0,0,1-.18,3.6h0l-9.1-.45h0a1.8,1.8,0,0,1,.18-3.6Z" transform="translate(-147.42 -109.22)"/><path class="cls-73" d="M1927.38,187.08l9.14.63a1.79,1.79,0,0,1-.25,3.58h0l-9.1-.62h0a1.8,1.8,0,0,1,.24-3.59Z" transform="translate(-147.42 -109.22)"/><path class="cls-73" d="M1945.64,188.44l9.12.81a1.79,1.79,0,0,1-.32,3.56h0l-9.09-.8h0a1.79,1.79,0,1,1,.31-3.56Z" transform="translate(-147.42 -109.22)"/><path class="cls-73" d="M1963.87,190.15l9.1,1a1.79,1.79,0,1,1-.39,3.55h0l-9.06-1h0a1.79,1.79,0,1,1,.39-3.55Z" transform="translate(-147.42 -109.22)"/><path class="cls-73" d="M1982.06,192.25l9.08,1.2a1.78,1.78,0,1,1-.47,3.52h0l-9-1.19h0a1.78,1.78,0,0,1,.46-3.53Z" transform="translate(-147.42 -109.22)"/><path class="cls-73" d="M2000.2,194.75l9,1.4a1.77,1.77,0,1,1-.54,3.5h0l-9-1.4h0a1.77,1.77,0,1,1,.54-3.5Z" transform="translate(-147.42 -109.22)"/><path class="cls-73" d="M2018.29,197.67l9,1.64a1.76,1.76,0,1,1-.63,3.47h0l-9-1.62h0a1.77,1.77,0,1,1,.63-3.48Z" transform="translate(-147.42 -109.22)"/><path class="cls-73" d="M2036.3,201.06l9,1.88a1.76,1.76,0,0,1-.72,3.44h0l-8.92-1.87h0a1.76,1.76,0,0,1,.72-3.45Z" transform="translate(-147.42 -109.22)"/><path class="cls-73" d="M2054.21,205l8.91,2.15a1.75,1.75,0,1,1-.82,3.4h0l-8.86-2.13h0a1.74,1.74,0,0,1-1.3-2.11,1.76,1.76,0,0,1,2.12-1.3Z" transform="translate(-147.42 -109.22)"/><path class="cls-73" d="M2072,209.39l8.84,2.43a1.75,1.75,0,0,1-.93,3.37h0l-8.78-2.41h0a1.75,1.75,0,1,1,.93-3.37Z" transform="translate(-147.42 -109.22)"/><path class="cls-73" d="M2089.63,214.42l8.75,2.76a1.74,1.74,0,1,1-1.05,3.32h0l-8.68-2.73h0a1.75,1.75,0,1,1,1.05-3.33Z" transform="translate(-147.42 -109.22)"/><path class="cls-73" d="M2107.07,220.11l8.64,3.12a1.73,1.73,0,0,1-1.18,3.26h0l-8.56-3.08,0,0a1.74,1.74,0,0,1,1.18-3.27Z" transform="translate(-147.42 -109.22)"/><path class="cls-73" d="M2124.27,226.54l8.48,3.51a1.73,1.73,0,0,1-1.32,3.2l0,0-8.41-3.47,0,0a1.73,1.73,0,0,1,1.33-3.2Z" transform="translate(-147.42 -109.22)"/><path class="cls-73" d="M2141.15,233.78l8.29,4a1.72,1.72,0,1,1-1.48,3.1l0,0-8.21-3.9-.05,0a1.73,1.73,0,0,1,1.49-3.12Z" transform="translate(-147.42 -109.22)"/><path class="cls-73" d="M2157.62,241.93l8.05,4.44a1.72,1.72,0,0,1-1.66,3l-.05,0L2156,245l-.05,0a1.72,1.72,0,1,1,1.66-3Z" transform="translate(-147.42 -109.22)"/><path class="cls-73" d="M2173.57,251.08l7.74,5a1.71,1.71,0,1,1-1.86,2.87l0,0-7.63-4.92-.05,0a1.71,1.71,0,1,1,1.85-2.88Z" transform="translate(-147.42 -109.22)"/><path class="cls-73" d="M2188.86,261.35l7.34,5.5a1.71,1.71,0,0,1-2,2.73l0,0-7.29-5.45,0,0a1.71,1.71,0,1,1,2.05-2.73Z" transform="translate(-147.42 -109.22)"/><path class="cls-73" d="M2203.43,272.49l7.14,5.77a1.7,1.7,0,0,1-2.14,2.64l0,0-7.08-5.73,0,0a1.7,1.7,0,1,1,2.13-2.64Z" transform="translate(-147.42 -109.22)"/><path class="cls-73" d="M2217.58,284.17l6.89,6.07a1.69,1.69,0,0,1-2.24,2.54l0,0-6.83-6,0,0a1.7,1.7,0,0,1,2.24-2.55Z" transform="translate(-147.42 -109.22)"/><path class="cls-73" d="M2231.22,296.46l6.59,6.39a1.69,1.69,0,1,1-2.35,2.42l0,0-6.53-6.32,0,0a1.69,1.69,0,1,1,2.35-2.43Z" transform="translate(-147.42 -109.22)"/><path class="cls-73" d="M2244.23,309.42l6.23,6.76a1.68,1.68,0,1,1-2.47,2.28l0,0-6.16-6.68,0,0a1.68,1.68,0,1,1,2.47-2.29Z" transform="translate(-147.42 -109.22)"/><path class="cls-73" d="M2256.47,323.14l5.78,7.16a1.67,1.67,0,0,1-2.61,2.1l0,0-5.7-7.07,0-.05a1.67,1.67,0,0,1,2.61-2.1Z" transform="translate(-147.42 -109.22)"/><path class="cls-73" d="M2267.75,337.68l5.2,7.61a1.67,1.67,0,1,1-2.75,1.88l0-.06-5.13-7.48,0-.06a1.67,1.67,0,0,1,2.76-1.89Z" transform="translate(-147.42 -109.22)"/><path class="cls-73" d="M2277.81,353.13l4.47,8.07a1.66,1.66,0,0,1-2.9,1.61l-.05-.08-4.39-7.92,0-.07a1.66,1.66,0,1,1,2.91-1.61Z" transform="translate(-147.42 -109.22)"/><path class="cls-73" d="M2286.32,369.49l3.55,8.53a1.65,1.65,0,0,1-3,1.27l0-.09-3.49-8.34,0-.09a1.65,1.65,0,0,1,.89-2.17,1.67,1.67,0,0,1,2.17.89Z" transform="translate(-147.42 -109.22)"/><path class="cls-73" d="M2292.89,386.76l2.42,8.92a1.65,1.65,0,0,1-3.18.86l0-.11-2.37-8.7,0-.11a1.65,1.65,0,0,1,3.19-.87Z" transform="translate(-147.42 -109.22)"/><path class="cls-73" d="M2297.09,404.76l1.1,9.2a1.64,1.64,0,1,1-3.26.39v-.12l-1.08-9,0-.12a1.65,1.65,0,0,1,3.27-.4Z" transform="translate(-147.42 -109.22)"/><path class="cls-73" d="M2298.58,423.22l-.35,9.26a1.64,1.64,0,0,1-3.27-.13v-.12l.32-9v-.13a1.64,1.64,0,1,1,3.28.12Z" transform="translate(-147.42 -109.22)"/><path class="cls-73" d="M2297.16,441.68l-1.77,9.08a1.64,1.64,0,0,1-1.92,1.29,1.62,1.62,0,0,1-1.28-1.91l0-.12,1.72-8.85,0-.12a1.63,1.63,0,0,1,3.21.62Z" transform="translate(-147.42 -109.22)"/><path class="cls-73" d="M2292.94,459.69l-3.07,8.72a1.62,1.62,0,1,1-3.06-1.08l0-.1,3-8.52,0-.1a1.63,1.63,0,1,1,3.07,1.08Z" transform="translate(-147.42 -109.22)"/><path class="cls-73" d="M2286.23,476.9l-4.16,8.25a1.62,1.62,0,1,1-2.89-1.46l0-.08,4.07-8.08,0-.08a1.62,1.62,0,0,1,2.9,1.45Z" transform="translate(-147.42 -109.22)"/><path class="cls-73" d="M2277.45,493.14l-5,7.72a1.62,1.62,0,0,1-2.71-1.76l.05-.07,4.93-7.59,0-.06a1.62,1.62,0,1,1,2.71,1.76Z" transform="translate(-147.42 -109.22)"/><path class="cls-73" d="M2267,508.33l-5.71,7.22a1.61,1.61,0,1,1-2.52-2l0,0,5.62-7.12,0-.05a1.61,1.61,0,0,1,2.53,2Z" transform="translate(-147.42 -109.22)"/><path class="cls-73" d="M2255.33,522.52l-6.25,6.75a1.6,1.6,0,1,1-2.35-2.17l0,0,6.17-6.67,0,0a1.6,1.6,0,0,1,2.35,2.17Z" transform="translate(-147.42 -109.22)"/><path class="cls-73" d="M2242.62,535.8l-6.67,6.32a1.6,1.6,0,1,1-2.2-2.31l0,0,6.59-6.26,0,0a1.6,1.6,0,0,1,2.2,2.32Z" transform="translate(-147.42 -109.22)"/><path class="cls-73" d="M2229.24,548.31l-6.64,6.26v0a1.6,1.6,0,0,1-2.19-2.32l6.66-6.29a1.6,1.6,0,1,1,2.19,2.32h0Z" transform="translate(-147.42 -109.22)"/><path class="cls-73" d="M2216.05,560.92l-6.46,6.43,0,0a1.58,1.58,0,1,1-2.23-2.24l6.48-6.48a1.59,1.59,0,0,1,2.25,2.25h0Z" transform="translate(-147.42 -109.22)"/><path class="cls-73" d="M2203.25,573.9l-6.2,6.67,0,0a1.58,1.58,0,0,1-2.31-2.15l6.25-6.72a1.58,1.58,0,1,1,2.32,2.15h0Z" transform="translate(-147.42 -109.22)"/><path class="cls-73" d="M2191,587.38l-5.84,7,0,0a1.57,1.57,0,1,1-2.41-2l5.9-7a1.57,1.57,0,0,1,2.41,2h0Z" transform="translate(-147.42 -109.22)"/><path class="cls-73" d="M2179.57,601.51l-5.3,7.36,0,.06a1.57,1.57,0,0,1-2.18.36,1.55,1.55,0,0,1-.36-2.18l5.37-7.49a1.57,1.57,0,0,1,2.55,1.83h0Z" transform="translate(-147.42 -109.22)"/><path class="cls-73" d="M2169.35,616.48l-4.45,7.87-.05.09a1.56,1.56,0,0,1-2.71-1.53l4.54-8a1.56,1.56,0,1,1,2.72,1.53h0Z" transform="translate(-147.42 -109.22)"/><path class="cls-73" d="M2161.05,632.5l-3.12,8.44,0,.14A1.55,1.55,0,1,1,2155,640l3.21-8.72a1.55,1.55,0,0,1,2.92,1.07h0Z" transform="translate(-147.42 -109.22)"/><path class="cls-73" d="M2155.69,649.63a78,78,0,0,0-1.25,8.86,1.55,1.55,0,1,1-3.08-.25,79.26,79.26,0,0,1,1.29-9.22,1.55,1.55,0,1,1,3,.61Z" transform="translate(-147.42 -109.22)"/><path class="cls-73" d="M2154.23,667.45l.77,8.94v.16a1.54,1.54,0,1,1-3.06.26l-.8-9.26a1.54,1.54,0,1,1,3.07-.27h0Z" transform="translate(-147.42 -109.22)"/><path class="cls-73" d="M2156.62,685.25l2.3,8.74,0,.09a1.53,1.53,0,1,1-3,.78l-2.36-8.93a1.54,1.54,0,1,1,3-.79h0Z" transform="translate(-147.42 -109.22)"/><path class="cls-73" d="M2161.73,702.6l3.18,8.51v0a1.53,1.53,0,1,1-2.86,1.07l-3.22-8.6a1.53,1.53,0,0,1,2.87-1.08h0Z" transform="translate(-147.42 -109.22)"/><path class="cls-73" d="M2168.33,719.55l3.57,8.38v0a1.54,1.54,0,0,1-.81,2,1.52,1.52,0,0,1-2-.81l-3.59-8.42a1.53,1.53,0,0,1,2.81-1.19h0Z" transform="translate(-147.42 -109.22)"/><path class="cls-73" d="M2175.54,736.33l3.26,8.64A1.52,1.52,0,0,1,2176,746l0-.09-3.19-8.45,0-.1a1.52,1.52,0,1,1,2.84-1.07Z" transform="translate(-147.42 -109.22)"/><path class="cls-73" d="M2181.53,753.77l2.3,8.91a1.51,1.51,0,0,1-2.92.76l0-.07-2.27-8.77,0-.07a1.51,1.51,0,0,1,2.93-.76Z" transform="translate(-147.42 -109.22)"/><path class="cls-73" d="M2185.76,771.67l1.57,9.05a1.5,1.5,0,1,1-3,.52v-.06l-1.56-8.93v-.06a1.51,1.51,0,0,1,3-.52Z" transform="translate(-147.42 -109.22)"/><path class="cls-73" d="M2188.58,789.83l.92,9.14a1.5,1.5,0,1,1-3,.3v0l-.91-9v0a1.5,1.5,0,1,1,3-.3Z" transform="translate(-147.42 -109.22)"/><path class="cls-73" d="M2190.1,808.13l.29,9.18a1.49,1.49,0,1,1-3,.09v0l-.29-9.07v0a1.51,1.51,0,0,1,1.45-1.55,1.49,1.49,0,0,1,1.54,1.45Z" transform="translate(-147.42 -109.22)"/><path class="cls-73" d="M2190.37,826.5l-.34,9.18a1.49,1.49,0,0,1-3-.11v-.05l.33-9.08v-.05a1.49,1.49,0,0,1,3,.1Z" transform="translate(-147.42 -109.22)"/><path class="cls-73" d="M2189.37,844.84l-1,9.14a1.48,1.48,0,0,1-2.94-.32v0l1-9v-.05a1.48,1.48,0,0,1,2.95.31Z" transform="translate(-147.42 -109.22)"/><path class="cls-73" d="M2187.09,863.07l-1.62,9a1.47,1.47,0,1,1-2.9-.52v-.05l1.6-8.94v-.05a1.48,1.48,0,0,1,2.91.52Z" transform="translate(-147.42 -109.22)"/><path class="cls-73" d="M2183.52,881.09l-2.27,8.9a1.47,1.47,0,0,1-2.85-.73l0,0,2.24-8.8v0a1.48,1.48,0,0,1,2.86.73Z" transform="translate(-147.42 -109.22)"/><path class="cls-73" d="M2178.65,898.8l-2.94,8.71a1.45,1.45,0,0,1-1.85.92,1.47,1.47,0,0,1-.92-1.85l0-.05,2.89-8.61,0,0a1.47,1.47,0,0,1,2.78.93Z" transform="translate(-147.42 -109.22)"/><path class="cls-73" d="M2172.46,916.1l-3.58,8.47a1.46,1.46,0,1,1-2.68-1.14l0,0,3.53-8.36,0,0a1.46,1.46,0,1,1,2.69,1.13Z" transform="translate(-147.42 -109.22)"/><path class="cls-73" d="M2165,932.89l-4.21,8.17a1.45,1.45,0,0,1-2.58-1.33l0-.05,4.16-8.07,0-.05a1.45,1.45,0,1,1,2.58,1.33Z" transform="translate(-147.42 -109.22)"/><path class="cls-73" d="M2156.25,949.06l-4.82,7.83a1.44,1.44,0,0,1-2.46-1.51l0,0,4.75-7.74,0,0a1.45,1.45,0,0,1,2.47,1.51Z" transform="translate(-147.42 -109.22)"/><path class="cls-73" d="M2146.32,964.53l-5.38,7.45a1.44,1.44,0,0,1-2.33-1.69l0,0,5.32-7.36,0,0a1.44,1.44,0,0,1,2.33,1.69Z" transform="translate(-147.42 -109.22)"/><path class="cls-73" d="M2135.29,979.22l-5.91,7a1.43,1.43,0,1,1-2.19-1.84l0,0,5.84-7,0,0a1.44,1.44,0,0,1,2.2,1.85Z" transform="translate(-147.42 -109.22)"/><path class="cls-73" d="M2123.24,993.07l-6.38,6.61a1.43,1.43,0,0,1-2,0,1.41,1.41,0,0,1,0-2l0,0,6.31-6.54,0,0a1.43,1.43,0,1,1,2.06,2Z" transform="translate(-147.42 -109.22)"/><path class="cls-73" d="M2110.26,1006.06l-6.8,6.17a1.42,1.42,0,1,1-1.91-2.1l0,0,6.72-6.11,0,0a1.42,1.42,0,1,1,1.91,2.1Z" transform="translate(-147.42 -109.22)"/><path class="cls-73" d="M2096.47,1018.18l-7.17,5.73a1.41,1.41,0,1,1-1.77-2.2l0,0,7.1-5.68,0,0a1.42,1.42,0,0,1,1.77,2.21Z" transform="translate(-147.42 -109.22)"/><path class="cls-73" d="M2082,1029.43l-7.49,5.3a1.41,1.41,0,0,1-1.63-2.3l0,0,7.43-5.26,0,0a1.41,1.41,0,1,1,1.63,2.3Z" transform="translate(-147.42 -109.22)"/><path class="cls-73" d="M2066.84,1039.82l-7.77,4.88a1.4,1.4,0,1,1-1.49-2.37l0,0,7.7-4.85,0,0a1.41,1.41,0,1,1,1.5,2.38Z" transform="translate(-147.42 -109.22)"/><path class="cls-73" d="M2051.19,1049.38l-8,4.48a1.39,1.39,0,1,1-1.37-2.43l0,0,7.94-4.45,0,0a1.4,1.4,0,0,1,1.37,2.44Z" transform="translate(-147.42 -109.22)"/><path class="cls-73" d="M2035.08,1058.16l-8.2,4.1a1.39,1.39,0,0,1-1.24-2.49h0l8.14-4.08h0a1.39,1.39,0,1,1,1.24,2.49Z" transform="translate(-147.42 -109.22)"/><path class="cls-73" d="M2018.59,1066.18l-8.36,3.74a1.38,1.38,0,1,1-1.13-2.52h0l8.31-3.73h0a1.39,1.39,0,0,1,1.14,2.53Z" transform="translate(-147.42 -109.22)"/><path class="cls-73" d="M2001.79,1073.49l-8.51,3.41a1.38,1.38,0,0,1-1-2.56h0l8.46-3.39h0a1.38,1.38,0,1,1,1,2.56Z" transform="translate(-147.42 -109.22)"/><polygon class="cls-73" points="1672.61 47.49 1676.48 82.3 1651.24 69.96 1672.61 47.49"/><path class="cls-3" d="M1661.29,154.15l103.17,72a8.86,8.86,0,0,0,12.53-2.47l68.38-106.31a3.55,3.55,0,0,0-3.8-5.38Z" transform="translate(-147.42 -109.22)"/><polygon class="cls-73" points="1672.6 47.5 1513.87 44.93 1661.62 64.69 1663.1 74.29 1672.6 47.5"/><polygon class="cls-73" points="1655.03 74.83 1676.48 82.3 1661.62 64.69 1655.03 74.83"/></svg>